<svg width="32" height="32" viewBox="0 0 32 32" fill="none" xmlns="http://www.w3.org/2000/svg">
<path d="M7.49135 15.648C7.1238 16.0155 7.1238 16.6114 7.49135 16.979L13.481 22.9686C13.8485 23.3362 14.4444 23.3362 14.812 22.9686C15.1795 22.601 15.1795 22.0051 14.812 21.6376L9.48788 16.3135L14.812 10.9894C15.1795 10.6218 15.1795 10.0259 14.812 9.65835C14.4444 9.2908 13.8485 9.2908 13.481 9.65835L7.49135 15.648ZM26.3529 17.2547C26.8727 17.2547 27.2941 16.8333 27.2941 16.3135C27.2941 15.7937 26.8727 15.3723 26.3529 15.3723L26.3529 17.2547ZM8.15686 17.2547L26.3529 17.2547L26.3529 15.3723L8.15686 15.3723L8.15686 17.2547Z" fill="black"/>
</svg>
