<svg width="56" height="56" viewBox="0 0 56 56" fill="none" xmlns="http://www.w3.org/2000/svg">
<path d="M45.8216 20.9744C45.8216 20.4385 45.9804 19.9145 46.2779 19.4689C46.5754 19.0233 46.9982 18.676 47.4929 18.4709C47.9876 18.2658 48.5319 18.2121 49.0571 18.3167C49.5822 18.4212 50.0646 18.6793 50.4432 19.0583C50.8218 19.4373 51.0797 19.9201 51.1842 20.4458C51.2886 20.9714 51.235 21.5163 51.0301 22.0114C50.8252 22.5066 50.4782 22.9298 50.033 23.2275C49.5878 23.5253 49.0644 23.6842 48.5289 23.6842C47.8109 23.6842 47.1223 23.3987 46.6146 22.8905C46.1069 22.3823 45.8216 21.6931 45.8216 20.9744ZM43.1144 15.5548C43.6498 15.5548 44.1732 15.3959 44.6185 15.0981C45.0637 14.8004 45.4107 14.3772 45.6156 13.882C45.8205 13.3869 45.8741 12.842 45.7696 12.3164C45.6652 11.7907 45.4073 11.3079 45.0287 10.9289C44.6501 10.5499 44.1677 10.2918 43.6425 10.1873C43.1174 10.0827 42.573 10.1364 42.0784 10.3415C41.5837 10.5466 41.1608 10.8939 40.8634 11.3395C40.5659 11.7852 40.4071 12.3091 40.4071 12.845C40.4071 13.5637 40.6923 14.2529 41.2001 14.7611C41.7078 15.2693 42.3964 15.5548 43.1144 15.5548ZM49.5802 28.2005C49.1034 28.1612 48.6304 28.313 48.2654 28.6225C47.9003 28.932 47.6729 29.374 47.6333 29.8513C47.3103 33.628 45.9163 37.2337 43.6154 40.2444C41.3145 43.255 38.2024 45.5452 34.6452 46.8455C31.0881 48.1458 27.2339 48.4022 23.5361 47.5844C19.8383 46.7666 16.4509 44.9086 13.7722 42.2292C11.0936 39.5497 9.23528 36.1602 8.4159 32.4595C7.59653 28.7588 7.8502 24.9008 9.14707 21.3395C10.4439 17.7782 12.73 14.6618 15.7364 12.3568C18.7428 10.0519 22.3443 8.65435 26.1173 8.32868C26.3543 8.3091 26.5851 8.243 26.7966 8.13413C27.0081 8.02526 27.1961 7.87576 27.3499 7.69417C27.5036 7.51258 27.6202 7.30245 27.6928 7.07578C27.7654 6.84911 27.7928 6.61034 27.7732 6.3731C27.7536 6.13587 27.6876 5.90481 27.5788 5.69312C27.4701 5.48143 27.3207 5.29326 27.1393 5.13935C26.9579 4.98543 26.7479 4.86879 26.5215 4.79609C26.295 4.72338 26.0565 4.69604 25.8195 4.71561C21.3616 5.09942 17.1059 6.74964 13.5532 9.47212C10.0004 12.1946 7.2984 15.8761 5.765 20.0834C4.23161 24.2908 3.93062 28.8489 4.89746 33.2217C5.86429 37.5944 8.05872 41.5998 11.2226 44.7667C14.3864 47.9335 18.3881 50.13 22.7568 51.0977C27.1254 52.0654 31.6793 51.7642 35.8827 50.2293C40.0862 48.6945 43.7642 45.99 46.4841 42.4339C49.204 38.8778 50.8527 34.6182 51.2362 30.1561C51.2566 29.9187 51.2298 29.6796 51.1575 29.4526C51.0852 29.2256 50.9687 29.0152 50.8148 28.8334C50.6609 28.6516 50.4725 28.5021 50.2607 28.3935C50.0488 28.2849 49.8175 28.2193 49.5802 28.2005ZM27.7732 11.9417C30.9859 11.9417 34.1264 12.8953 36.7977 14.6818C39.4689 16.4684 41.5509 19.0077 42.7803 21.9786C44.0098 24.9495 44.3314 28.2186 43.7047 31.3725C43.0779 34.5264 41.5309 37.4234 39.2592 39.6973C36.9874 41.9711 34.0931 43.5196 30.9422 44.1469C27.7912 44.7743 24.5252 44.4523 21.557 43.2217C18.5889 41.9911 16.052 39.9072 14.2671 37.2334C12.4823 34.5597 11.5296 31.4162 11.5296 28.2005C11.5344 23.8899 13.2473 19.7572 16.2925 16.7091C19.3378 13.661 23.4666 11.9465 27.7732 11.9417ZM25.9684 28.2005C25.9684 28.6797 26.1585 29.1392 26.497 29.478C26.8355 29.8167 27.2945 30.0071 27.7732 30.0071H38.6023C39.0809 30.0071 39.54 29.8167 39.8785 29.478C40.217 29.1392 40.4071 28.6797 40.4071 28.2005C40.4071 27.7214 40.217 27.2619 39.8785 26.9231C39.54 26.5843 39.0809 26.394 38.6023 26.394H29.578V17.3613C29.578 16.8822 29.3879 16.4227 29.0494 16.0839C28.7109 15.7451 28.2519 15.5548 27.7732 15.5548C27.2945 15.5548 26.8355 15.7451 26.497 16.0839C26.1585 16.4227 25.9684 16.8822 25.9684 17.3613V28.2005ZM34.9926 10.1352C35.528 10.1352 36.0514 9.97628 36.4967 9.67853C36.9419 9.38077 37.2889 8.95756 37.4938 8.46241C37.6987 7.96725 37.7523 7.4224 37.6478 6.89675C37.5434 6.3711 37.2855 5.88826 36.9069 5.50929C36.5283 5.13032 36.0459 4.87224 35.5207 4.76768C34.9956 4.66312 34.4512 4.71678 33.9566 4.92188C33.4619 5.12698 33.039 5.4743 32.7416 5.91993C32.4441 6.36555 32.2853 6.88946 32.2853 7.42541C32.2853 8.14409 32.5705 8.83334 33.0783 9.34153C33.586 9.84971 34.2746 10.1352 34.9926 10.1352Z" fill="#37B3E0"/>
</svg>
