<svg width="14" height="15" viewBox="0 0 14 15" fill="none" xmlns="http://www.w3.org/2000/svg">
<path id="Vector" d="M3.9711 0.260498C4.10106 0.260498 4.22569 0.312207 4.31758 0.404249C4.40948 0.496292 4.4611 0.621128 4.4611 0.751296V1.66909H9.723V0.757606C9.723 0.627439 9.77462 0.502602 9.86652 0.41056C9.95841 0.318517 10.083 0.266808 10.213 0.266808C10.343 0.266808 10.4676 0.318517 10.5595 0.41056C10.6514 0.502602 10.703 0.627439 10.703 0.757606V1.66909H12.6C12.9712 1.66909 13.3272 1.81673 13.5897 2.07956C13.8522 2.34239 13.9998 2.69888 14 3.07067V12.8817C13.9998 13.2535 13.8522 13.61 13.5897 13.8728C13.3272 14.1357 12.9712 14.2833 12.6 14.2833H1.4C1.02882 14.2833 0.672829 14.1357 0.410298 13.8728C0.147767 13.61 0.000185591 13.2535 0 12.8817L0 3.07067C0.000185591 2.69888 0.147767 2.34239 0.410298 2.07956C0.672829 1.81673 1.02882 1.66909 1.4 1.66909H3.4811V0.750595C3.48129 0.620549 3.53299 0.495892 3.62487 0.404001C3.71674 0.312111 3.84126 0.260498 3.9711 0.260498ZM0.98 5.68872V12.8817C0.98 12.937 0.990864 12.9917 1.01197 13.0427C1.03308 13.0937 1.06401 13.1401 1.10302 13.1792C1.14202 13.2183 1.18832 13.2492 1.23927 13.2704C1.29023 13.2915 1.34484 13.3024 1.4 13.3024H12.6C12.6552 13.3024 12.7098 13.2915 12.7607 13.2704C12.8117 13.2492 12.858 13.2183 12.897 13.1792C12.936 13.1401 12.9669 13.0937 12.988 13.0427C13.0091 12.9917 13.02 12.937 13.02 12.8817V5.69854L0.98 5.68872ZM4.6669 10.5105V11.6786H3.5V10.5105H4.6669ZM7.5831 10.5105V11.6786H6.4169V10.5105H7.5831ZM10.5 10.5105V11.6786H9.3331V10.5105H10.5ZM4.6669 7.72203V8.89013H3.5V7.72203H4.6669ZM7.5831 7.72203V8.89013H6.4169V7.72203H7.5831ZM10.5 7.72203V8.89013H9.3331V7.72203H10.5ZM3.4811 2.64998H1.4C1.34484 2.64998 1.29023 2.66086 1.23927 2.68201C1.18832 2.70315 1.14202 2.73413 1.10302 2.7732C1.06401 2.81226 1.03308 2.85864 1.01197 2.90968C0.990864 2.96072 0.98 3.01542 0.98 3.07067V4.70783L13.02 4.71765V3.07067C13.02 3.01542 13.0091 2.96072 12.988 2.90968C12.9669 2.85864 12.936 2.81226 12.897 2.7732C12.858 2.73413 12.8117 2.70315 12.7607 2.68201C12.7098 2.66086 12.6552 2.64998 12.6 2.64998H10.703V3.30134C10.703 3.43151 10.6514 3.55635 10.5595 3.64839C10.4676 3.74043 10.343 3.79214 10.213 3.79214C10.083 3.79214 9.95841 3.74043 9.86652 3.64839C9.77462 3.55635 9.723 3.43151 9.723 3.30134V2.64998H4.4611V3.29503C4.4611 3.4252 4.40948 3.55004 4.31758 3.64208C4.22569 3.73412 4.10106 3.78583 3.9711 3.78583C3.84114 3.78583 3.71651 3.73412 3.62462 3.64208C3.53272 3.55004 3.4811 3.4252 3.4811 3.29503V2.64998Z" fill="#818183"/>
</svg>
