<svg width="64" height="64" viewBox="0 0 64 64" fill="none" xmlns="http://www.w3.org/2000/svg">
<path d="M5 50.9C5 55.49 8.51 59 13.1 59H50.9C55.49 59 59 55.49 59 50.9V29.3H5V50.9ZM50.9 10.4H45.5V7.7C45.5 6.08 44.42 5 42.8 5C41.18 5 40.1 6.08 40.1 7.7V10.4H23.9V7.7C23.9 6.08 22.82 5 21.2 5C19.58 5 18.5 6.08 18.5 7.7V10.4H13.1C8.51 10.4 5 13.91 5 18.5V23.9H59V18.5C59 13.91 55.49 10.4 50.9 10.4Z" fill="#37B3E0"/>
<path d="M27.468 43.657L31.9359 48.607L41.51 38M23 43.707L27.468 48.657M37.0411 38.051L32.2545 43.354" stroke="white" stroke-width="2" stroke-linecap="round" stroke-linejoin="round"/>
</svg>
