<svg width="102" height="74" viewBox="0 0 102 74" fill="none" xmlns="http://www.w3.org/2000/svg">
<g clip-path="url(#clip0_291_2045)">
<path opacity="0.1" d="M67.6242 4.6975C42.3693 -5.64609 12.079 12.1367 5.06805 26.8049C-11.7671 62.0263 17.6529 78.2811 30.5953 72.3357C35.9983 69.8534 40.4117 65.6147 44.6771 61.4908C51.0816 55.3516 59.5673 51.8137 68.4656 51.5727C75.3186 51.4163 82.1388 53.2424 88.9722 52.7062C95.8057 52.17 101.842 42.8113 101.657 36.0069C101.374 25.6211 94.7059 15.7889 67.6242 4.6975Z" fill="#37B3E0"/>
<path d="M85.0133 3.77417H16.647C14.3799 3.77417 12.5421 5.59918 12.5421 7.85045V61.2755C12.5421 63.5268 14.3799 65.3518 16.647 65.3518H85.0133C87.2804 65.3518 89.1182 63.5268 89.1182 61.2755V7.85045C89.1182 5.59918 87.2804 3.77417 85.0133 3.77417Z" fill="white"/>
<path d="M85.0136 65.4801H16.6471C15.5246 65.4788 14.4485 65.0354 13.6548 64.2473C12.8611 63.4591 12.4147 62.3905 12.4135 61.2758V7.85073C12.4147 6.7361 12.8611 5.66747 13.6548 4.87929C14.4485 4.09112 15.5246 3.64776 16.6471 3.64648H85.0136C86.136 3.64776 87.2121 4.09112 88.0058 4.87929C88.7995 5.66747 89.2459 6.7361 89.2472 7.85073V61.2758C89.2459 62.3905 88.7995 63.4591 88.0058 64.2473C87.2121 65.0354 86.136 65.4788 85.0136 65.4801ZM16.6471 3.90229C15.5929 3.90349 14.5823 4.31987 13.8369 5.0601C13.0915 5.80032 12.6722 6.80392 12.6711 7.85073V61.2758C12.6722 62.3226 13.0915 63.3262 13.8369 64.0665C14.5823 64.8067 15.5929 65.2231 16.6471 65.2243H85.0136C86.0677 65.2231 87.0784 64.8067 87.8237 64.0665C88.5691 63.3262 88.9884 62.3226 88.9896 61.2758V7.85073C88.9884 6.80392 88.5691 5.80032 87.8237 5.0601C87.0784 4.31987 86.0677 3.90349 85.0136 3.90229H16.6471Z" fill="black"/>
<path d="M89.1182 7.85078V15.5804H12.5424V7.85078C12.5422 7.31536 12.6483 6.78516 12.8546 6.29047C13.0608 5.79577 13.3632 5.34628 13.7444 4.96766C14.1257 4.58904 14.5783 4.28872 15.0764 4.08386C15.5746 3.87899 16.1085 3.77359 16.6477 3.77368H85.0136C86.1023 3.77386 87.1464 4.20351 87.9162 4.9681C88.6859 5.7327 89.1183 6.76962 89.1182 7.85078Z" fill="#37B3E0"/>
<path d="M89.2567 15.7178H12.4044V7.85088C12.4055 6.73357 12.8529 5.66232 13.6484 4.8722C14.444 4.08209 15.5227 3.63767 16.6479 3.63647H85.0138C86.1388 3.63786 87.2174 4.08235 88.0128 4.87244C88.8082 5.66253 89.2556 6.73368 89.2567 7.85088V15.7178ZM12.6812 15.4432H88.9801V7.85088C88.9791 6.8065 88.5609 5.80518 87.8173 5.06658C87.0737 4.32799 86.0655 3.91244 85.0138 3.91109H16.6479C15.596 3.91225 14.5876 4.32773 13.8439 5.06635C13.1002 5.80497 12.682 6.80639 12.681 7.85088L12.6812 15.4432Z" fill="#37B3E0"/>
<path d="M32.4326 7.77854V2.07241C32.4326 1.02196 31.575 0.17041 30.5172 0.17041C29.4594 0.17041 28.6018 1.02196 28.6018 2.07241V7.77854C28.6018 8.82898 29.4594 9.68053 30.5172 9.68053C31.575 9.68053 32.4326 8.82898 32.4326 7.77854Z" fill="white"/>
<path d="M30.5166 9.80802C29.9748 9.80729 29.4553 9.59317 29.0722 9.21262C28.689 8.83207 28.4736 8.31616 28.473 7.77805V2.07205C28.4708 1.80408 28.522 1.53832 28.6237 1.29011C28.7255 1.04189 28.8757 0.816141 29.0657 0.62587C29.2557 0.435599 29.4818 0.284576 29.731 0.181514C29.9801 0.0784521 30.2473 0.0253906 30.5171 0.0253906C30.787 0.0253906 31.0542 0.0784521 31.3033 0.181514C31.5524 0.284576 31.7785 0.435599 31.9685 0.62587C32.1586 0.816141 32.3088 1.04189 32.4105 1.29011C32.5123 1.53832 32.5635 1.80408 32.5613 2.07205V7.77805C32.5607 8.31632 32.3451 8.83238 31.9617 9.21295C31.5784 9.59353 31.0587 9.80754 30.5166 9.80802ZM30.5166 0.297891C30.043 0.2984 29.5888 0.485484 29.2539 0.818094C28.9189 1.1507 28.7305 1.60167 28.73 2.07205V7.77805C28.7279 8.01234 28.7726 8.24472 28.8615 8.46177C28.9503 8.67882 29.0816 8.87625 29.2477 9.04265C29.4138 9.20905 29.6114 9.34113 29.8292 9.43127C30.047 9.52141 30.2806 9.56782 30.5166 9.56782C30.7525 9.56782 30.9861 9.52141 31.2039 9.43127C31.4217 9.34113 31.6193 9.20905 31.7854 9.04265C31.9516 8.87625 32.0828 8.67882 32.1717 8.46177C32.2605 8.24472 32.3052 8.01234 32.3031 7.77805V2.07205C32.3026 1.6017 32.1142 1.15075 31.7793 0.818142C31.4444 0.485536 30.9903 0.298437 30.5166 0.297891Z" fill="black"/>
<path d="M73.0587 7.77829V2.07217C73.0587 1.02172 72.2011 0.170166 71.1433 0.170166C70.0855 0.170166 69.2279 1.02172 69.2279 2.07217V7.77829C69.2279 8.82874 70.0855 9.68029 71.1433 9.68029C72.2011 9.68029 73.0587 8.82874 73.0587 7.77829Z" fill="white"/>
<path d="M71.1434 9.80792C70.6014 9.80734 70.0818 9.59328 69.6986 9.21272C69.3153 8.83215 69.0998 8.31616 69.0992 7.77795V2.07196C69.0992 1.53358 69.3146 1.01725 69.6979 0.636556C70.0813 0.255863 70.6012 0.0419922 71.1434 0.0419922C71.6856 0.0419922 72.2055 0.255863 72.5889 0.636556C72.9723 1.01725 73.1876 1.53358 73.1876 2.07196V7.77795C73.187 8.31616 72.9715 8.83215 72.5882 9.21272C72.205 9.59328 71.6854 9.80734 71.1434 9.80792ZM71.1434 0.297798C70.6698 0.298452 70.2158 0.4856 69.881 0.818194C69.5462 1.15079 69.3579 1.60167 69.3573 2.07196V7.77795C69.3573 8.24849 69.5456 8.69975 69.8806 9.03248C70.2157 9.3652 70.6701 9.55212 71.144 9.55212C71.6178 9.55212 72.0722 9.3652 72.4073 9.03248C72.7423 8.69975 72.9306 8.24849 72.9306 7.77795V2.07196C72.9301 1.60148 72.7416 1.15043 72.4065 0.817806C72.0715 0.485181 71.6172 0.298161 71.1434 0.297798Z" fill="black"/>
<g opacity="0.08">
<path d="M27.3083 21.0498H16.284V31.81H27.3083V21.0498Z" fill="black"/>
<path d="M27.3083 34.8018H16.284V45.5619H27.3083V34.8018Z" fill="#37B3E0"/>
<path d="M27.3083 48.5544H16.284V59.3146H27.3083V48.5544Z" fill="#37B3E0"/>
<path d="M41.8245 21.0498H30.8002V31.81H41.8245V21.0498Z" fill="#37B3E0"/>
<path d="M41.8245 34.8018H30.8002V45.5619H41.8245V34.8018Z" fill="#37B3E0"/>
<path d="M56.1946 21.0498H45.1702V31.81H56.1946V21.0498Z" fill="#37B3E0"/>
<path d="M56.1946 34.8018H45.1702V45.5619H56.1946V34.8018Z" fill="#37B3E0"/>
<path d="M70.9713 21.0498H59.947V31.81H70.9713V21.0498Z" fill="#37B3E0"/>
<path d="M70.9713 34.8018H59.947V45.5619H70.9713V34.8018Z" fill="#37B3E0"/>
<path d="M41.8245 48.5544H30.8002V59.3146H41.8245V48.5544Z" fill="#37B3E0"/>
<path d="M56.1946 48.5544H45.1702V59.3146H56.1946V48.5544Z" fill="#37B3E0"/>
<path d="M85.3765 21.0498H74.3521V31.81H85.3765V21.0498Z" fill="#37B3E0"/>
<path d="M85.3765 34.8018H74.3521V45.5619H85.3765V34.8018Z" fill="#37B3E0"/>
</g>
<path d="M43.725 36.7754C44.8695 36.7754 45.7974 35.854 45.7974 34.7174C45.7974 33.5808 44.8695 32.6594 43.725 32.6594C42.5804 32.6594 41.6525 33.5808 41.6525 34.7174C41.6525 35.854 42.5804 36.7754 43.725 36.7754Z" fill="black"/>
<path d="M57.9357 36.7754C59.0803 36.7754 60.0081 35.854 60.0081 34.7174C60.0081 33.5808 59.0803 32.6594 57.9357 32.6594C56.7911 32.6594 55.8633 33.5808 55.8633 34.7174C55.8633 35.854 56.7911 36.7754 57.9357 36.7754Z" fill="black"/>
<path d="M48.0532 39.2532L50.8304 39.7916L53.6103 39.2676C53.647 39.2677 53.6821 39.2823 53.708 39.3081C53.7339 39.3339 53.7483 39.3689 53.7482 39.4053C53.7482 39.4417 53.7335 39.4766 53.7075 39.5023C53.6815 39.5279 53.6463 39.5423 53.6096 39.5422L50.8288 40.4092L48.0525 39.5278C48.0158 39.5277 47.9806 39.5132 47.9548 39.4874C47.9289 39.4615 47.9144 39.4266 47.9145 39.3902C47.9146 39.3537 47.9293 39.3189 47.9553 39.2932C47.9813 39.2675 48.0165 39.2531 48.0532 39.2532Z" fill="black"/>
<path d="M41.5871 40.6044C42.6081 40.6044 43.4358 40.1718 43.4358 39.6381C43.4358 39.1045 42.6081 38.6719 41.5871 38.6719C40.5661 38.6719 39.7384 39.1045 39.7384 39.6381C39.7384 40.1718 40.5661 40.6044 41.5871 40.6044Z" fill="white"/>
<path d="M60.0735 40.6044C61.0945 40.6044 61.9222 40.1718 61.9222 39.6381C61.9222 39.1045 61.0945 38.6719 60.0735 38.6719C59.0525 38.6719 58.2248 39.1045 58.2248 39.6381C58.2248 40.1718 59.0525 40.6044 60.0735 40.6044Z" fill="white"/>
<g opacity="0.4">
<path d="M41.5871 40.6044C42.6081 40.6044 43.4358 40.1718 43.4358 39.6381C43.4358 39.1045 42.6081 38.6719 41.5871 38.6719C40.5661 38.6719 39.7384 39.1045 39.7384 39.6381C39.7384 40.1718 40.5661 40.6044 41.5871 40.6044Z" fill="#37B3E0"/>
<path d="M60.0735 40.6044C61.0945 40.6044 61.9222 40.1718 61.9222 39.6381C61.9222 39.1045 61.0945 38.6719 60.0735 38.6719C59.0525 38.6719 58.2248 39.1045 58.2248 39.6381C58.2248 40.1718 59.0525 40.6044 60.0735 40.6044Z" fill="#37B3E0"/>
</g>
</g>
<defs>
<clipPath id="clip0_291_2045">
<rect width="101.661" height="73.4952" fill="white" transform="translate(0 0.041748)"/>
</clipPath>
</defs>
</svg>
