<svg width="30" height="31" viewBox="0 0 30 31" fill="none" xmlns="http://www.w3.org/2000/svg">
<path d="M25.4 8.16923C25.4 5.36751 20.2718 3 14.2 3C8.1282 3 3 5.36751 3 8.16923V10.7538C3 13.5556 8.1282 15.9231 14.2 15.9231C20.2718 15.9231 25.4 13.5556 25.4 10.7538V8.16923ZM14.2 24.9692C8.1282 24.9692 3 22.6017 3 19.8V23.6769C3 26.4786 8.1282 28.8461 14.2 28.8461C20.2718 28.8461 25.4 26.4786 25.4 23.6769V19.8C25.4 22.6017 20.2718 24.9692 14.2 24.9692Z" fill="black"/>
<path d="M25.4 13.1227C25.4 16.1579 20.2718 18.7227 14.2 18.7227C8.1282 18.7227 3 16.1579 3 13.1227V17.3227C3 20.3579 8.1282 22.9227 14.2 22.9227C20.2718 22.9227 25.4 20.3579 25.4 17.3227V13.1227Z" fill="black"/>
</svg>
