<svg width="28" height="28" viewBox="0 0 28 28" fill="none" xmlns="http://www.w3.org/2000/svg">
<g id="bi:key-fill">
<path id="Vector" d="M14.8071 4.96154C15.4611 4.19757 16.3082 3.62309 17.2598 3.29803C18.2115 2.97298 19.233 2.90925 20.2177 3.11349C21.2024 3.31774 22.1142 3.78248 22.8581 4.45923C23.602 5.13598 24.1507 5.99994 24.4468 6.96099C24.743 7.92205 24.7759 8.94497 24.5421 9.92306C24.3082 10.9011 23.8161 11.7986 23.1173 12.5217C22.4184 13.2448 21.5382 13.7671 20.5687 14.0342C19.5991 14.3013 18.5757 14.3033 17.6051 14.04L9.94578 22.991L6.54991 23.255L6.28584 19.8592L8.54975 19.6831L8.3737 17.4192L10.6376 17.2432L10.4616 14.9793L12.7255 14.8032L12.5494 12.5393L13.9452 10.9082C13.5113 9.93701 13.3621 8.86265 13.5146 7.80998C13.6672 6.75732 14.1154 5.76957 14.8071 4.96154ZM18.901 6.35138C18.6242 6.67494 18.4872 7.09523 18.5202 7.5198C18.5532 7.94436 18.7535 8.33842 19.0771 8.61529C19.4006 8.89216 19.8209 9.02915 20.2455 8.99614C20.6701 8.96312 21.0641 8.7628 21.341 8.43924C21.6178 8.11568 21.7548 7.69539 21.7218 7.27083C21.6888 6.84626 21.4885 6.4522 21.1649 6.17533C20.8414 5.89846 20.4211 5.76147 19.9965 5.79449C19.572 5.8275 19.1779 6.02782 18.901 6.35138Z" fill="black"/>
</g>
</svg>
