<svg width="34" height="34" viewBox="0 0 34 34" fill="none" xmlns="http://www.w3.org/2000/svg">
<g id="Group 29334">
<circle id="Ellipse 962" cx="16.9999" cy="16.9706" r="12" transform="rotate(-45 16.9999 16.9706)" fill="#FAFBFD"/>
<g id="close">
<mask id="mask0_8368_103" style="mask-type:alpha" maskUnits="userSpaceOnUse" x="2" y="1" width="30" height="31">
<rect id="Bounding box" x="2.15063" y="16.2635" width="21" height="21" transform="rotate(-45 2.15063 16.2635)" fill="#D9D9D9"/>
</mask>
<g mask="url(#mask0_8368_103)">
<path id="close_2" d="M17.8661 17.1296L17.8661 23.1931C17.8661 23.4199 17.7785 23.621 17.6032 23.7963C17.4279 23.9716 17.2268 24.0593 16.9999 24.0593C16.7731 24.0593 16.572 23.9716 16.3967 23.7963C16.2214 23.621 16.1337 23.4199 16.1337 23.1931L16.1337 17.1296L10.0703 17.1296C9.84341 17.1296 9.64232 17.042 9.46702 16.8667C9.29172 16.6914 9.20406 16.4903 9.20406 16.2634C9.20406 16.0366 9.29172 15.8355 9.46702 15.6602C9.64232 15.4849 9.84341 15.3972 10.0703 15.3972L16.1337 15.3972L16.1337 9.33378C16.1337 9.10692 16.2214 8.90583 16.3967 8.73053C16.572 8.55523 16.7731 8.46758 16.9999 8.46758C17.2268 8.46758 17.4279 8.55523 17.6032 8.73053C17.7785 8.90583 17.8661 9.10692 17.8661 9.33378L17.8661 15.3972L23.9296 15.3972C24.1564 15.3972 24.3575 15.4849 24.5328 15.6602C24.7081 15.8355 24.7958 16.0366 24.7958 16.2634C24.7958 16.4903 24.7081 16.6914 24.5328 16.8667C24.3575 17.042 24.1564 17.1296 23.9296 17.1296L17.8661 17.1296Z" fill="#7E7E7E"/>
</g>
</g>
</g>
</svg>
