<svg width="30" height="29" viewBox="0 0 30 29" fill="none" xmlns="http://www.w3.org/2000/svg">
<path fill-rule="evenodd" clip-rule="evenodd" d="M14.5 25.75C20.7131 25.75 25.75 20.7131 25.75 14.5C25.75 8.28687 20.7131 3.25 14.5 3.25C8.28687 3.25 3.25 8.28687 3.25 14.5C3.25 20.7131 8.28687 25.75 14.5 25.75ZM14.5 27C21.4037 27 27 21.4037 27 14.5C27 7.59625 21.4037 2 14.5 2C7.59625 2 2 7.59625 2 14.5C2 21.4037 7.59625 27 14.5 27Z" fill="black"/>
<path d="M7 21.7689C7 21.1232 7.4825 20.5776 8.125 20.5064C12.9469 19.9726 16.075 20.0207 20.8863 20.5182C21.1265 20.5435 21.3542 20.6381 21.5416 20.7906C21.7289 20.9431 21.8678 21.1469 21.9412 21.3771C22.0147 21.6072 22.0195 21.8537 21.9551 22.0866C21.8908 22.3194 21.76 22.5285 21.5788 22.6882C15.9006 27.6376 12.6556 27.5695 7.4 22.6932C7.14375 22.4557 7 22.1176 7 21.7689Z" fill="black"/>
<path fill-rule="evenodd" clip-rule="evenodd" d="M20.8219 21.1395C16.0488 20.6458 12.9656 20.5995 8.19313 21.1277C8.03603 21.146 7.8912 21.2216 7.78638 21.34C7.68155 21.4584 7.62409 21.6114 7.625 21.7695C7.625 21.9483 7.69938 22.1177 7.825 22.2352C10.43 24.6514 12.4038 25.7433 14.3331 25.7502C16.2694 25.757 18.3494 24.6739 21.1681 22.2177C21.2577 22.138 21.3221 22.034 21.3537 21.9183C21.3852 21.8026 21.3825 21.6803 21.3458 21.5662C21.3092 21.452 21.2401 21.351 21.1471 21.2754C21.0541 21.1998 20.9411 21.1522 20.8219 21.1395ZM8.05625 19.8852C12.9288 19.3458 16.1025 19.3945 20.9513 19.8964C21.3127 19.9341 21.6553 20.0764 21.9371 20.3059C22.2189 20.5353 22.4277 20.8419 22.538 21.1882C22.6482 21.5345 22.6551 21.9054 22.5577 22.2555C22.4604 22.6057 22.2631 22.9198 21.99 23.1595C19.1306 25.652 16.7494 27.0095 14.3294 27.0002C11.9025 26.9914 9.62625 25.6108 6.97563 23.1514C6.78585 22.9746 6.63456 22.7606 6.53122 22.5228C6.42787 22.2849 6.3747 22.0283 6.375 21.7689C6.37409 21.3029 6.54513 20.853 6.85536 20.5053C7.16558 20.1576 7.59318 19.9372 8.05625 19.8852Z" fill="black"/>
<path d="M19.5 12.0001C19.5 13.3262 18.9732 14.598 18.0355 15.5357C17.0979 16.4733 15.8261 17.0001 14.5 17.0001C13.1739 17.0001 11.9021 16.4733 10.9645 15.5357C10.0268 14.598 9.5 13.3262 9.5 12.0001C9.5 10.674 10.0268 9.40227 10.9645 8.46459C11.9021 7.52691 13.1739 7.00012 14.5 7.00012C15.8261 7.00012 17.0979 7.52691 18.0355 8.46459C18.9732 9.40227 19.5 10.674 19.5 12.0001Z" fill="black"/>
<path fill-rule="evenodd" clip-rule="evenodd" d="M14.5 15.7501C15.4946 15.7501 16.4484 15.355 17.1517 14.6518C17.8549 13.9485 18.25 12.9947 18.25 12.0001C18.25 11.0056 17.8549 10.0517 17.1517 9.34847C16.4484 8.64521 15.4946 8.25012 14.5 8.25012C13.5054 8.25012 12.5516 8.64521 11.8483 9.34847C11.1451 10.0517 10.75 11.0056 10.75 12.0001C10.75 12.9947 11.1451 13.9485 11.8483 14.6518C12.5516 15.355 13.5054 15.7501 14.5 15.7501ZM14.5 17.0001C15.8261 17.0001 17.0979 16.4733 18.0355 15.5357C18.9732 14.598 19.5 13.3262 19.5 12.0001C19.5 10.674 18.9732 9.40227 18.0355 8.46459C17.0979 7.52691 15.8261 7.00012 14.5 7.00012C13.1739 7.00012 11.9021 7.52691 10.9645 8.46459C10.0268 9.40227 9.5 10.674 9.5 12.0001C9.5 13.3262 10.0268 14.598 10.9645 15.5357C11.9021 16.4733 13.1739 17.0001 14.5 17.0001Z" fill="black"/>
</svg>
