<svg width="20" height="20" viewBox="0 0 20 20" fill="none" xmlns="http://www.w3.org/2000/svg">
<path d="M10.7437 6.13947V9.30197L13.3659 10.8752C13.472 10.9362 13.5648 11.0177 13.639 11.115C13.7131 11.2122 13.7672 11.3233 13.798 11.4417C13.8288 11.5601 13.8356 11.6834 13.8182 11.8045C13.8008 11.9256 13.7594 12.042 13.6965 12.1469C13.6336 12.2519 13.5504 12.3432 13.4518 12.4156C13.3532 12.488 13.2412 12.5401 13.1222 12.5687C13.0033 12.5973 12.8798 12.602 12.7591 12.5824C12.6383 12.5627 12.5227 12.5193 12.4189 12.4545L9.34931 10.6127C9.21289 10.5309 9.09998 10.4152 9.02157 10.2768C8.94317 10.1384 8.90194 9.98209 8.90191 9.82304V6.13947C8.90191 5.89524 8.99893 5.66101 9.17163 5.48831C9.34433 5.31561 9.57857 5.21858 9.8228 5.21858C10.067 5.21858 10.3013 5.31561 10.474 5.48831C10.6467 5.66101 10.7437 5.89524 10.7437 6.13947ZM9.8228 2.14895C8.81373 2.14635 7.81418 2.34403 6.88206 2.73052C5.94993 3.11702 5.10378 3.68465 4.39262 4.40053C4.0327 4.76428 3.70195 5.11959 3.37657 5.4749V4.91162C3.37657 4.66739 3.27955 4.43315 3.10685 4.26045C2.93415 4.08775 2.69992 3.99073 2.45568 3.99073C2.21144 3.99073 1.97721 4.08775 1.80451 4.26045C1.63181 4.43315 1.53479 4.66739 1.53479 4.91162V7.98126C1.53479 8.22549 1.63181 8.45972 1.80451 8.63242C1.97721 8.80512 2.21144 8.90215 2.45568 8.90215H5.52531C5.76955 8.90215 6.00378 8.80512 6.17648 8.63242C6.34918 8.45972 6.4462 8.22549 6.4462 7.98126C6.4462 7.73702 6.34918 7.50279 6.17648 7.33009C6.00378 7.15739 5.76955 7.06037 5.52531 7.06037H4.43329C4.83465 6.59992 5.24674 6.15636 5.69875 5.69898C6.50925 4.88824 7.54072 4.33434 8.66424 4.1065C9.78776 3.87865 10.9535 3.98697 12.0158 4.41791C13.0781 4.84885 13.9899 5.58331 14.6372 6.5295C15.2844 7.47568 15.6385 8.59164 15.6551 9.73792C15.6717 10.8842 15.3501 12.0099 14.7306 12.9745C14.111 13.939 13.2209 14.6996 12.1716 15.1612C11.1222 15.6227 9.96006 15.7648 8.8304 15.5696C7.70075 15.3744 6.65366 14.8506 5.82 14.0637C5.64232 13.896 5.40529 13.8058 5.16106 13.8128C4.91684 13.8199 4.68541 13.9237 4.51771 14.1013C4.35 14.279 4.25974 14.516 4.26679 14.7603C4.27385 15.0045 4.37763 15.2359 4.55531 15.4036C5.46624 16.2635 6.57382 16.8873 7.78133 17.2205C8.98885 17.5538 10.2596 17.5864 11.4826 17.3155C12.7056 17.0446 13.8437 16.4784 14.7976 15.6664C15.7514 14.8544 16.4919 13.8213 16.9546 12.6572C17.4172 11.4931 17.5878 10.2334 17.4515 8.98818C17.3153 7.74296 16.8762 6.55002 16.1728 5.51353C15.4693 4.47704 14.5228 3.62851 13.416 3.04202C12.3091 2.45553 11.0755 2.14892 9.8228 2.14895Z" fill="black"/>
</svg>
