<svg width="74" height="64" viewBox="0 0 74 64" fill="none" xmlns="http://www.w3.org/2000/svg">
<path fill-rule="evenodd" clip-rule="evenodd" d="M53.5763 20.8825C53.4233 20.8751 53.2701 20.8725 53.1169 20.8746H46.725C41.496 20.8746 37.0178 25.0247 37.0178 30.4375C37.0178 35.8502 41.496 40.0004 46.7276 40.0004H53.1143C53.2744 40.0004 53.4293 40.0004 53.5736 39.9899C54.653 39.9209 55.6704 39.4619 56.4364 38.6984C57.2023 37.9348 57.6646 36.9188 57.7369 35.8397C57.7474 35.6849 57.7474 35.5195 57.7474 35.3672V25.5077C57.7474 25.3555 57.7474 25.1901 57.7369 25.0352C57.6646 23.9566 57.2028 22.9409 56.4374 22.1774C55.6719 21.4139 54.6551 20.9546 53.5763 20.8851V20.8825ZM46.1659 32.9864C47.5125 32.9864 48.6071 31.8471 48.6071 30.4375C48.6071 29.0279 47.5125 27.8886 46.1659 27.8886C44.8193 27.8886 43.7273 29.0279 43.7273 30.4375C43.7273 31.8471 44.8166 32.9864 46.1659 32.9864Z" fill="#F44336" fill-opacity="0.5"/>
<path fill-rule="evenodd" clip-rule="evenodd" d="M53.1142 43.825C53.2022 43.8219 53.2896 43.8395 53.3695 43.8764C53.4494 43.9133 53.5195 43.9685 53.5742 44.0375C53.6288 44.1064 53.6665 44.1873 53.6842 44.2735C53.7019 44.3597 53.6991 44.4488 53.676 44.5337C53.1667 46.3502 52.3609 47.899 51.0667 49.201C49.1741 51.1094 46.7723 51.9572 43.806 52.3589C40.9237 52.75 37.2435 52.75 32.592 52.75H27.2449C22.596 52.75 18.9131 52.75 16.0309 52.3589C13.0646 51.9572 10.6628 51.1094 8.77013 49.201C6.8775 47.2952 6.0375 44.875 5.6385 41.8851C5.25 38.9792 5.25 35.2675 5.25 30.5819V30.2931C5.25 25.6075 5.25 21.8931 5.6385 18.9899C6.0375 16 6.8775 13.585 8.7675 11.6714C10.6601 9.76561 13.062 8.91511 16.0282 8.51611C18.9131 8.12499 22.596 8.12498 27.2449 8.12498H32.592C37.2409 8.12498 40.9237 8.12499 43.806 8.51611C46.7723 8.91774 49.1741 9.76561 51.0667 11.6714C52.3609 12.976 53.1667 14.5247 53.676 16.3439C53.6986 16.4286 53.701 16.5175 53.6831 16.6033C53.6652 16.6892 53.6274 16.7696 53.5728 16.8383C53.5182 16.9069 53.4483 16.9618 53.3687 16.9986C53.289 17.0353 53.2019 17.0529 53.1142 17.05H46.7276C39.5509 17.05 33.2272 22.7646 33.2272 30.4375C33.2272 38.1104 39.5535 43.825 46.7303 43.825H53.1142ZM14.7367 18.3257C14.4868 18.3268 14.2396 18.377 14.0091 18.4736C13.7786 18.5702 13.5693 18.7113 13.3933 18.8887C13.2173 19.0662 13.078 19.2765 12.9833 19.5078C12.8887 19.7391 12.8405 19.9868 12.8415 20.2367C12.8415 21.2946 13.6894 22.1504 14.7367 22.1504H24.8588C25.9088 22.1504 26.7566 21.2946 26.7566 20.2367C26.758 19.7318 26.5589 19.2469 26.2031 18.8886C25.8472 18.5302 25.3637 18.3278 24.8588 18.3257H14.7367Z" fill="#F44336" fill-opacity="0.5"/>
<path d="M20.4146 5.56299L25.5544 1.77511C26.8956 0.783555 28.5195 0.248444 30.1875 0.248444C31.8554 0.248444 33.4794 0.783555 34.8206 1.77511L39.9892 5.58399C37.8262 5.49999 35.4112 5.49999 32.7679 5.49999H27.0716C24.6514 5.49999 22.428 5.49999 20.4146 5.56299Z" fill="#F44336" fill-opacity="0.5"/>
<circle cx="60" cy="50" r="13.5" fill="white" stroke="#D9D9D9"/>
<path fill-rule="evenodd" clip-rule="evenodd" d="M65.7725 45.3247C65.8446 45.2527 65.9018 45.1672 65.9408 45.0732C65.9798 44.9791 65.9999 44.8783 66 44.7764C66.0001 44.6746 65.9801 44.5738 65.9412 44.4796C65.9022 44.3855 65.8452 44.3 65.7732 44.2279C65.7012 44.1559 65.6158 44.0987 65.5217 44.0597C65.4277 44.0207 65.3268 44.0005 65.225 44.0005C65.1232 44.0004 65.0223 44.0204 64.9282 44.0593C64.8341 44.0982 64.7486 44.1553 64.6765 44.2273L59.9999 48.904L55.3246 44.2273C55.1791 44.0818 54.9818 44 54.776 44C54.5702 44 54.3728 44.0818 54.2273 44.2273C54.0818 44.3728 54 44.5702 54 44.776C54 44.9818 54.0818 45.1791 54.2273 45.3247L58.9039 50L54.2273 54.6753C54.1552 54.7474 54.0981 54.8329 54.0591 54.9271C54.0201 55.0212 54 55.1221 54 55.224C54 55.3259 54.0201 55.4268 54.0591 55.521C54.0981 55.6151 54.1552 55.7007 54.2273 55.7727C54.3728 55.9182 54.5702 56 54.776 56C54.8779 56 54.9788 55.9799 55.0729 55.9409C55.167 55.9019 55.2526 55.8448 55.3246 55.7727L59.9999 51.096L64.6765 55.7727C64.822 55.9181 65.0193 55.9996 65.225 55.9995C65.4307 55.9994 65.6279 55.9176 65.7732 55.772C65.9185 55.6265 66.0001 55.4292 66 55.2236C65.9999 55.0179 65.918 54.8207 65.7725 54.6753L61.0959 50L65.7725 45.3247Z" fill="#F44336" fill-opacity="0.5"/>
</svg>
