<svg width="32" height="18" viewBox="0 0 32 18" fill="none" xmlns="http://www.w3.org/2000/svg">
<path d="M18 18H1.5C0.675 18 0 17.325 0 16.5C0 15.675 0.675 15 1.5 15H18C18.825 15 19.5 15.675 19.5 16.5C19.5 17.325 18.825 18 18 18Z" fill="black"/>
<path d="M21 10.5H1.5C0.675 10.5 0 9.825 0 9C0 8.175 0.675 7.5 1.5 7.5H21C21.825 7.5 22.5 8.175 22.5 9C22.5 9.825 21.825 10.5 21 10.5Z" fill="black"/>
<path d="M1.5 3C0.675 3 0 2.325 0 1.5C0 0.675 0.675 0 1.5 0H18C18.825 0 19.5 0.675 19.5 1.5C19.5 2.325 18.825 3 18 3H1.5Z" fill="black"/>
<path d="M27.9921 9.02823L23.6721 4.70823C23.0871 4.12323 23.1021 3.16323 23.6721 2.57823C24.2571 1.99323 25.2021 1.99323 25.7871 2.57823L31.1721 7.96323C31.7571 8.54823 31.7571 9.49323 31.1721 10.0782L25.7871 15.4632C25.2021 16.0482 24.2571 16.0482 23.6721 15.4632C23.0871 14.8782 23.0871 13.9332 23.6721 13.3482L27.9921 9.02823Z" fill="black"/>
</svg>
