<svg width="24" height="24" viewBox="0 0 24 24" fill="none" xmlns="http://www.w3.org/2000/svg">
<g id="Group 29328">
<circle id="Ellipse 962" cx="12" cy="12" r="12" fill="#FAFBFD"/>
<g id="close">
<mask id="mask0_8312_239" style="mask-type:alpha" maskUnits="userSpaceOnUse" x="2" y="1" width="21" height="21">
<rect id="Bounding box" x="2" y="1" width="21" height="21" fill="#D9D9D9"/>
</mask>
<g mask="url(#mask0_8312_239)">
<path id="close_2" d="M12.5 12.725L8.21245 17.0125C8.05203 17.1729 7.84787 17.2531 7.59995 17.2531C7.35203 17.2531 7.14787 17.1729 6.98745 17.0125C6.82703 16.8521 6.74683 16.6479 6.74683 16.4C6.74683 16.1521 6.82703 15.9479 6.98745 15.7875L11.275 11.5L6.98745 7.21248C6.82703 7.05207 6.74683 6.8479 6.74683 6.59998C6.74683 6.35207 6.82703 6.1479 6.98745 5.98748C7.14787 5.82707 7.35203 5.74686 7.59995 5.74686C7.84787 5.74686 8.05203 5.82707 8.21245 5.98748L12.5 10.275L16.7875 5.98748C16.9479 5.82707 17.152 5.74686 17.4 5.74686C17.6479 5.74686 17.852 5.82707 18.0125 5.98748C18.1729 6.1479 18.2531 6.35207 18.2531 6.59998C18.2531 6.8479 18.1729 7.05207 18.0125 7.21248L13.725 11.5L18.0125 15.7875C18.1729 15.9479 18.2531 16.1521 18.2531 16.4C18.2531 16.6479 18.1729 16.8521 18.0125 17.0125C17.852 17.1729 17.6479 17.2531 17.4 17.2531C17.152 17.2531 16.9479 17.1729 16.7875 17.0125L12.5 12.725Z" fill="#7E7E7E"/>
</g>
</g>
</g>
</svg>
