<svg width="28" height="28" viewBox="0 0 28 28" fill="none" xmlns="http://www.w3.org/2000/svg">
<g id="Group 29329">
<circle id="Ellipse 962" cx="14" cy="14" r="14" fill="#FAFBFD"/>
<path id="Vector" d="M10.7919 9.10065V6.65065C10.7919 6.43406 10.8718 6.22634 11.014 6.07318C11.1562 5.92003 11.3491 5.83398 11.5502 5.83398H17.6169C17.818 5.83398 18.0109 5.92003 18.1531 6.07318C18.2953 6.22634 18.3752 6.43406 18.3752 6.65065V9.10065H22.1669V10.734H20.6502V21.3507C20.6502 21.5672 20.5703 21.775 20.4281 21.9281C20.2859 22.0813 20.093 22.1673 19.8919 22.1673H9.27524C9.07412 22.1673 8.88124 22.0813 8.73902 21.9281C8.59681 21.775 8.51691 21.5672 8.51691 21.3507V10.734H7.00024V9.10065H10.7919ZM15.6559 15.634L16.9966 14.1901L15.9243 13.0354L14.5836 14.4792L13.2428 13.0354L12.1706 14.1901L13.5113 15.634L12.1706 17.0779L13.2428 18.2326L14.5836 16.7888L15.9243 18.2326L16.9966 17.0779L15.6559 15.634ZM12.3086 7.46732V9.10065H16.8586V7.46732H12.3086Z" fill="#818183"/>
</g>
</svg>
