<svg width="30" height="30" viewBox="0 0 30 30" fill="none" xmlns="http://www.w3.org/2000/svg">
<g clip-path="url(#clip0_755_5707)">
<path d="M12.2123 11.6195C15.1448 11.6195 17.5221 9.24222 17.5221 6.30973C17.5221 3.37725 15.1448 1 12.2123 1C9.27984 1 6.90259 3.37725 6.90259 6.30973C6.90259 9.24222 9.27984 11.6195 12.2123 11.6195Z" fill="black"/>
<path d="M14.7788 26.4905C14.4863 26.2013 14.2955 25.8251 14.2348 25.4182C14.1742 25.0114 14.2471 24.5959 14.4425 24.2339L14.9115 23.349L13.9469 23.0569C13.5535 22.9338 13.2111 22.6857 12.9715 22.3503C12.732 22.0149 12.6084 21.6105 12.6195 21.1985V19.3844C12.6187 18.9741 12.75 18.5746 12.9938 18.2447C13.2376 17.9148 13.5811 17.6721 13.9735 17.5525L14.9381 17.2605L14.4779 16.3755C14.2882 16.0185 14.216 15.6107 14.2716 15.2103C14.3272 14.8099 14.5078 14.4372 14.7876 14.1454C14.1068 14.0562 13.4211 14.0089 12.7345 14.0038C10.7065 13.9561 8.6929 14.3564 6.83738 15.1764C4.98186 15.9963 3.33013 17.2155 2 18.7472V25.6056C2 25.8403 2.09324 26.0654 2.2592 26.2313C2.42516 26.3973 2.65025 26.4905 2.88496 26.4905H14.7788Z" fill="black"/>
<path d="M29.8938 18.8053L28.1239 18.2743C28.0013 17.8373 27.8291 17.4157 27.6106 17.0177L28.4956 15.3717C28.5298 15.3106 28.5423 15.2397 28.531 15.1706C28.5198 15.1015 28.4855 15.0382 28.4336 14.9912L27.1505 13.6991C27.101 13.651 27.038 13.6193 26.97 13.6082C26.9019 13.5971 26.8321 13.6072 26.7699 13.6372L25.1328 14.5221C24.7298 14.3032 24.3058 14.1253 23.8673 13.9912L23.3275 12.2212C23.3037 12.156 23.2603 12.0997 23.2033 12.0601C23.1462 12.0205 23.0783 11.9995 23.0089 12H21.1682C21.0992 12.0019 21.0324 12.025 20.977 12.0662C20.9216 12.1074 20.8802 12.1646 20.8584 12.2301L20.3275 14C19.8804 14.1301 19.4498 14.3112 19.0443 14.5398L17.4425 13.6549C17.3802 13.6218 17.3091 13.6091 17.2392 13.6186C17.1694 13.6282 17.1043 13.6594 17.0531 13.708L15.7522 14.9823C15.701 15.0317 15.6673 15.0964 15.6561 15.1666C15.6449 15.2369 15.6569 15.3089 15.6903 15.3717L16.5752 16.9823C16.3382 17.382 16.1453 17.8064 16 18.2478L14.2301 18.7876C14.1632 18.807 14.1044 18.8477 14.0628 18.9037C14.0213 18.9596 13.9992 19.0277 14 19.0974V20.9115C13.9992 20.9812 14.0213 21.0492 14.0628 21.1052C14.1044 21.1611 14.1632 21.2019 14.2301 21.2212L16 21.7611C16.1327 22.1945 16.3107 22.6127 16.531 23.0089L15.646 24.6903C15.6127 24.7531 15.6007 24.8251 15.6118 24.8953C15.623 24.9656 15.6568 25.0303 15.708 25.0797L17.0266 26.3628C17.0777 26.4114 17.1428 26.4427 17.2127 26.4522C17.2826 26.4617 17.3537 26.449 17.416 26.4159L19.0708 25.531C19.4646 25.7428 19.88 25.9119 20.3098 26.0354L20.8407 27.8496C20.863 27.9165 20.9057 27.9747 20.9629 28.016C21.0201 28.0573 21.0888 28.0796 21.1593 28.0797H22.9735C23.0425 28.0777 23.1092 28.0546 23.1646 28.0135C23.22 27.9723 23.2614 27.9151 23.2832 27.8496L23.8142 26.0354C24.2388 25.9134 24.6485 25.7442 25.0354 25.531L26.708 26.4159C26.7703 26.449 26.8414 26.4617 26.9112 26.4522C26.9811 26.4427 27.0462 26.4114 27.0974 26.3628L28.3894 25.0797C28.438 25.0285 28.4692 24.9634 28.4787 24.8935C28.4883 24.8237 28.4756 24.7526 28.4425 24.6903L27.5575 23.0266C27.7692 22.6389 27.9384 22.2294 28.062 21.8053L29.8319 21.2655C29.8984 21.2441 29.9568 21.2031 29.9995 21.1478C30.0421 21.0924 30.067 21.0255 30.0708 20.9558V19.1239C30.073 19.0597 30.0576 18.9962 30.0265 18.9401C29.9953 18.884 29.9494 18.8374 29.8938 18.8053ZM22.0797 22.9823C21.4947 22.9841 20.9224 22.8122 20.4351 22.4885C19.9479 22.1648 19.5677 21.7038 19.3426 21.1638C19.1175 20.6239 19.0577 20.0293 19.1708 19.4554C19.2838 18.8814 19.5646 18.3539 19.9777 17.9397C20.3907 17.5254 20.9173 17.243 21.4909 17.1283C22.0645 17.0135 22.6593 17.0715 23.1999 17.295C23.7405 17.5184 24.2026 17.8973 24.5278 18.3835C24.853 18.8698 25.0266 19.4416 25.0266 20.0266C25.0266 20.8089 24.7164 21.5594 24.164 22.1135C23.6116 22.6675 22.862 22.98 22.0797 22.9823Z" fill="black"/>
</g>
<defs>
<clipPath id="clip0_755_5707">
<rect width="30" height="30" rx="9.42332" fill="white"/>
</clipPath>
</defs>
</svg>
