<svg width="30" height="31" viewBox="0 0 30 31" fill="none" xmlns="http://www.w3.org/2000/svg">
<path d="M3.32568 4.96289C3.32568 4.4106 3.7734 3.96289 4.32568 3.96289H7.95068C8.50297 3.96289 8.95068 4.41061 8.95068 4.96289V8.69206C8.95068 9.24434 8.50297 9.69206 7.95068 9.69206H4.32568C3.7734 9.69206 3.32568 9.24434 3.32568 8.69206V4.96289ZM20.2007 4.96289C20.2007 4.4106 20.6484 3.96289 21.2007 3.96289H24.8257C25.378 3.96289 25.8257 4.41061 25.8257 4.96289V8.69206C25.8257 9.24434 25.378 9.69206 24.8257 9.69206H21.2007C20.6484 9.69206 20.2007 9.24434 20.2007 8.69206V4.96289ZM11.7632 4.96289C11.7632 4.4106 12.2109 3.96289 12.7632 3.96289H16.3882C16.9405 3.96289 17.3882 4.41061 17.3882 4.96289V8.69206C17.3882 9.24434 16.9405 9.69206 16.3882 9.69206H12.7632C12.2109 9.69206 11.7632 9.24434 11.7632 8.69206V4.96289ZM3.32568 22.1504C3.32568 21.5981 3.7734 21.1504 4.32568 21.1504H7.95068C8.50297 21.1504 8.95068 21.5981 8.95068 22.1504V25.8796C8.95068 26.4318 8.50297 26.8796 7.95068 26.8796H4.32568C3.7734 26.8796 3.32568 26.4318 3.32568 25.8796V22.1504ZM20.2007 22.1504C20.2007 21.5981 20.6484 21.1504 21.2007 21.1504H24.8257C25.378 21.1504 25.8257 21.5981 25.8257 22.1504V25.8796C25.8257 26.4318 25.378 26.8796 24.8257 26.8796H21.2007C20.6484 26.8796 20.2007 26.4318 20.2007 25.8796V22.1504ZM11.7632 22.1504C11.7632 21.5981 12.2109 21.1504 12.7632 21.1504H16.3882C16.9405 21.1504 17.3882 21.5981 17.3882 22.1504V25.8796C17.3882 26.4318 16.9405 26.8796 16.3882 26.8796H12.7632C12.2109 26.8796 11.7632 26.4318 11.7632 25.8796V22.1504ZM3.32568 13.5566C3.32568 13.0044 3.7734 12.5566 4.32568 12.5566H7.95068C8.50297 12.5566 8.95068 13.0044 8.95068 13.5566V17.2858C8.95068 17.8381 8.50297 18.2858 7.95068 18.2858H4.32568C3.7734 18.2858 3.32568 17.8381 3.32568 17.2858V13.5566ZM20.2007 13.5566C20.2007 13.0044 20.6484 12.5566 21.2007 12.5566H24.8257C25.378 12.5566 25.8257 13.0044 25.8257 13.5566V17.2858C25.8257 17.8381 25.378 18.2858 24.8257 18.2858H21.2007C20.6484 18.2858 20.2007 17.8381 20.2007 17.2858V13.5566ZM11.7632 13.5566C11.7632 13.0044 12.2109 12.5566 12.7632 12.5566H16.3882C16.9405 12.5566 17.3882 13.0044 17.3882 13.5566V17.2858C17.3882 17.8381 16.9405 18.2858 16.3882 18.2858H12.7632C12.2109 18.2858 11.7632 17.8381 11.7632 17.2858V13.5566Z" fill="black"/>
</svg>
