<svg width="74" height="57" viewBox="0 0 74 57" fill="none" xmlns="http://www.w3.org/2000/svg">
<g clip-path="url(#clip0_1514_3496)">
<path d="M67.4178 14.4601C67.5433 14.5982 67.6096 14.7796 67.6025 14.9657C67.5954 15.1517 67.5154 15.3276 67.3796 15.4557C67.2438 15.5839 67.0631 15.6541 66.876 15.6513C66.6888 15.6486 66.5102 15.5731 66.3783 15.4411L62.0791 10.9259C61.9529 10.7935 61.8826 10.6179 61.8826 10.4354C61.8826 10.253 61.9529 10.0774 62.0791 9.94496L66.3783 5.42981C66.5102 5.29776 66.6888 5.2223 66.876 5.21956C67.0631 5.21682 67.2438 5.28702 67.3796 5.41516C67.5154 5.54329 67.5954 5.71918 67.6025 5.90524C67.6096 6.09129 67.5433 6.27274 67.4178 6.41079L64.265 9.72253H73.108C73.298 9.72253 73.4803 9.79764 73.6146 9.93134C73.749 10.065 73.8245 10.2464 73.8245 10.4354C73.8245 10.6245 73.749 10.8059 73.6146 10.9396C73.4803 11.0733 73.298 11.1484 73.108 11.1484H64.265L67.4178 14.4601ZM54.717 10.4354C54.717 9.67914 55.0189 8.9538 55.5564 8.41901C56.094 7.88422 56.823 7.58377 57.5831 7.58377C58.3433 7.58377 59.0723 7.88422 59.6098 8.41901C60.1473 8.9538 60.4492 9.67914 60.4492 10.4354C60.4492 11.1918 60.1473 11.9171 59.6098 12.4519C59.0723 12.9867 58.3433 13.2871 57.5831 13.2871C56.823 13.2871 56.094 12.9867 55.5564 12.4519C55.0189 11.9171 54.717 11.1918 54.717 10.4354ZM56.15 10.4354C56.15 10.8136 56.301 11.1763 56.5698 11.4437C56.8385 11.7111 57.203 11.8613 57.5831 11.8613C57.9632 11.8613 58.3277 11.7111 58.5964 11.4437C58.8652 11.1763 59.0162 10.8136 59.0162 10.4354C59.0162 10.0573 58.8652 9.69463 58.5964 9.42723C58.3277 9.15983 57.9632 9.00961 57.5831 9.00961C57.203 9.00961 56.8385 9.15983 56.5698 9.42723C56.301 9.69463 56.15 10.0573 56.15 10.4354Z" fill="#37B3E0"/>
</g>
<path d="M38.6553 5.21924C40.6766 5.21924 42.6151 6.02294 44.0444 7.45353C45.4737 8.88412 46.2766 10.8244 46.2766 12.8476V14.608H4.06635V12.8476C4.06635 10.8244 4.8693 8.88412 6.29857 7.45353C7.72784 6.02294 9.66635 5.21924 11.6876 5.21924H38.6553ZM46.2766 18.1288V26.3955C43.35 24.522 39.8717 23.7054 36.418 24.0809C32.9643 24.4564 29.7424 26.0015 27.2859 28.4603C24.8294 30.919 23.2857 34.144 22.9106 37.6009C22.5354 41.0578 23.3513 44.5392 25.2231 47.4686H11.6876C9.66635 47.4686 7.72784 46.6649 6.29857 45.2343C4.8693 43.8037 4.06635 41.8634 4.06635 39.8402V18.1288H46.2766ZM50.9666 39.2534C50.9666 35.8296 49.6078 32.546 47.189 30.125C44.7703 27.704 41.4897 26.3439 38.0691 26.3439C34.6484 26.3439 31.3679 27.704 28.9491 30.125C26.5303 32.546 25.1715 35.8296 25.1715 39.2534C25.1715 42.6772 26.5303 45.9608 28.9491 48.3818C31.3679 50.8028 34.6484 52.1629 38.0691 52.1629C41.4897 52.1629 44.7703 50.8028 47.189 48.3818C49.6078 45.9608 50.9666 42.6772 50.9666 39.2534ZM38.0691 39.2534H42.7591C43.0701 39.2534 43.3683 39.3771 43.5882 39.5972C43.8081 39.8173 43.9316 40.1158 43.9316 40.427C43.9316 40.7383 43.8081 41.0368 43.5882 41.2569C43.3683 41.477 43.0701 41.6006 42.7591 41.6006H36.8966C36.5856 41.6006 36.2874 41.477 36.0675 41.2569C35.8476 41.0368 35.7241 40.7383 35.7241 40.427V33.3855C35.7241 33.0742 35.8476 32.7757 36.0675 32.5556C36.2874 32.3355 36.5856 32.2119 36.8966 32.2119C37.2075 32.2119 37.5058 32.3355 37.7256 32.5556C37.9455 32.7757 38.0691 33.0742 38.0691 33.3855V39.2534Z" fill="#37B3E0"/>
<defs>
<clipPath id="clip0_1514_3496">
<rect width="19.9761" height="10.4319" fill="white" transform="translate(53.8484 5.21948)"/>
</clipPath>
</defs>
</svg>
