<svg width="77" height="57" viewBox="0 0 77 57" fill="none" xmlns="http://www.w3.org/2000/svg">
<g clip-path="url(#clip0_1514_3479)">
<path d="M63.4193 13.9653C63.352 14.0326 63.2989 14.1125 63.2631 14.2004C63.2274 14.2883 63.2097 14.3824 63.2111 14.4772C63.2125 14.572 63.2329 14.6656 63.2713 14.7524C63.3097 14.8392 63.3651 14.9176 63.4344 14.9828C63.5037 15.0481 63.5854 15.0989 63.6748 15.1323C63.7642 15.1658 63.8594 15.1811 63.9548 15.1775C64.0503 15.1739 64.144 15.1514 64.2305 15.1113C64.3171 15.0712 64.3947 15.0143 64.4588 14.944L68.758 10.4393C68.8842 10.3072 68.9545 10.1321 68.9545 9.94998C68.9545 9.76791 68.8842 9.59277 68.758 9.46063L64.4588 4.95593C64.3269 4.82419 64.1482 4.7489 63.9611 4.74617C63.774 4.74344 63.5933 4.81348 63.4575 4.94131C63.3217 5.06915 63.2417 5.24464 63.2346 5.43026C63.2274 5.61589 63.2938 5.79691 63.4193 5.93464L66.5721 9.23872H57.7291C57.5391 9.23872 57.3568 9.31365 57.2224 9.44704C57.0881 9.58043 57.0126 9.76134 57.0126 9.94998C57.0126 10.1386 57.0881 10.3195 57.2224 10.4529C57.3568 10.5863 57.5391 10.6613 57.7291 10.6613H66.5721L63.4193 13.9653ZM76.1201 9.94998C76.1201 9.19542 75.8181 8.47177 75.2806 7.93821C74.7431 7.40466 74.0141 7.10491 73.254 7.10491C72.4938 7.10491 71.7648 7.40466 71.2273 7.93821C70.6898 8.47177 70.3878 9.19542 70.3878 9.94998C70.3878 10.7045 70.6898 11.4282 71.2273 11.9618C71.7648 12.4953 72.4938 12.7951 73.254 12.7951C74.0141 12.7951 74.7431 12.4953 75.2806 11.9618C75.8181 11.4282 76.1201 10.7045 76.1201 9.94998ZM74.687 9.94998C74.687 10.3273 74.5361 10.6891 74.2673 10.9559C73.9986 11.2226 73.634 11.3725 73.254 11.3725C72.8739 11.3725 72.5094 11.2226 72.2406 10.9559C71.9719 10.6891 71.8209 10.3273 71.8209 9.94998C71.8209 9.5727 71.9719 9.21088 72.2406 8.9441C72.5094 8.67732 72.8739 8.52745 73.254 8.52745C73.634 8.52745 73.9986 8.67732 74.2673 8.9441C74.5361 9.21088 74.687 9.5727 74.687 9.94998Z" fill="#37B3E0"/>
</g>
<path d="M38.9315 4.74609C40.9528 4.74609 42.8913 5.54979 44.3206 6.98039C45.7498 8.41098 46.5528 10.3513 46.5528 12.3744V14.1348H4.34253V12.3744C4.34253 10.3513 5.14548 8.41098 6.57476 6.98039C8.00403 5.54979 9.94253 4.74609 11.9638 4.74609H38.9315ZM46.5528 17.6556V25.9224C43.6262 24.0489 40.1479 23.2323 36.6942 23.6078C33.2405 23.9832 30.0186 25.5283 27.5621 27.9871C25.1056 30.4459 23.5619 33.6708 23.1867 37.1277C22.8116 40.5846 23.6275 44.0661 25.4993 46.9954H11.9638C9.94253 46.9954 8.00403 46.1917 6.57476 44.7611C5.14548 43.3305 4.34253 41.3902 4.34253 39.3671V17.6556H46.5528ZM51.2428 38.7803C51.2428 35.3565 49.884 32.0729 47.4652 29.6519C45.0465 27.2309 41.7659 25.8708 38.3452 25.8708C34.9246 25.8708 31.644 27.2309 29.2253 29.6519C26.8065 32.0729 25.4477 35.3565 25.4477 38.7803C25.4477 42.2041 26.8065 45.4877 29.2253 47.9087C31.644 50.3297 34.9246 51.6898 38.3452 51.6898C41.7659 51.6898 45.0465 50.3297 47.4652 47.9087C49.884 45.4877 51.2428 42.2041 51.2428 38.7803ZM38.3452 38.7803H43.0353C43.3462 38.7803 43.6445 38.9039 43.8644 39.124C44.0843 39.3441 44.2078 39.6426 44.2078 39.9539C44.2078 40.2651 44.0843 40.5636 43.8644 40.7837C43.6445 41.0038 43.3462 41.1275 43.0353 41.1275H37.1727C36.8618 41.1275 36.5635 41.0038 36.3437 40.7837C36.1238 40.5636 36.0002 40.2651 36.0002 39.9539V32.9123C36.0002 32.6011 36.1238 32.3026 36.3437 32.0825C36.5635 31.8624 36.8618 31.7387 37.1727 31.7387C37.4837 31.7387 37.7819 31.8624 38.0018 32.0825C38.2217 32.3026 38.3452 32.6011 38.3452 32.9123V38.7803Z" fill="#37B3E0"/>
<defs>
<clipPath id="clip0_1514_3479">
<rect width="19.9761" height="10.4319" fill="white" transform="translate(56.4541 4.74609)"/>
</clipPath>
</defs>
</svg>
