<svg width="31" height="32" viewBox="0 0 31 32" fill="none" xmlns="http://www.w3.org/2000/svg">
<path d="M12.1107 14.1207L12.437 13.7944L12.3029 13.3529C12.0011 12.3588 11.9364 11.3079 12.1138 10.2844C12.2913 9.26079 12.706 8.29303 13.3248 7.45864C13.9435 6.62425 14.7491 5.94643 15.677 5.47949C16.6048 5.01255 17.6292 4.76947 18.6679 4.76974L18.6683 4.76974C19.6245 4.76943 20.5695 4.97531 21.439 5.37333C22.3084 5.77135 23.0818 6.35216 23.7065 7.07618C24.3313 7.8002 24.7925 8.65041 25.059 9.56887L25.7982 9.35443L25.059 9.56887C25.3254 10.4873 25.3907 11.4524 25.2504 12.3984C25.1101 13.3444 24.7676 14.249 24.2461 15.0506C23.7246 15.8522 23.0364 16.5319 22.2285 17.0435C21.4206 17.555 20.5119 17.8863 19.5644 18.0148C18.6169 18.1434 17.6528 18.0661 16.7378 17.7882L16.2962 17.6541L15.9699 17.9805L7.62894 26.3224H3.76974V22.4626L12.1107 14.1207ZM18.6676 17.9652H18.668C20.0441 17.9654 21.3852 17.5315 22.5006 16.7254C23.616 15.9193 24.4487 14.782 24.8805 13.4753C25.3123 12.1686 25.321 10.759 24.9055 9.44696C24.49 8.13497 23.6714 6.9874 22.5662 6.1675C21.4609 5.34761 20.1253 4.89714 18.7492 4.8802C17.3732 4.86325 16.0269 5.28069 14.9018 6.07312C13.7767 6.86555 12.9301 7.99261 12.4824 9.29398C12.0347 10.5952 12.0088 12.0045 12.4081 13.3214C12.4082 13.3215 12.4082 13.3216 12.4082 13.3217L12.5609 13.8259L12.1883 14.1986L12.1882 14.1987L4.10495 22.2827L3.87953 22.5082V22.827V25.4427V26.2124H4.64927H7.26468H7.58356L7.80902 25.9869L9.62907 24.1665L10.1732 23.6222L9.62902 23.078L9.03634 22.4853L9.11392 22.4077L9.70653 23.0004L10.2509 23.5448L10.7952 23.0004L12.103 21.6924L12.6472 21.1481L12.1029 20.6038L11.5102 20.0111L11.5879 19.9335L12.1804 20.526L12.7247 21.0703L13.269 20.526L15.8922 17.9024L15.8922 17.9024L16.2646 17.5299L16.7687 17.6828C16.7687 17.6828 16.7688 17.6828 16.7688 17.6829C17.3844 17.8697 18.0242 17.9648 18.6676 17.9652Z" stroke="black" stroke-width="1.53947"/>
<path d="M19.9935 11.1054C19.9935 11.6613 19.5428 12.112 18.9869 12.112C18.431 12.112 17.9803 11.6613 17.9803 11.1054C17.9803 10.5495 18.431 10.0988 18.9869 10.0988C19.5428 10.0988 19.9935 10.5495 19.9935 11.1054Z" stroke="black" stroke-width="1.53947"/>
</svg>
