<svg width="64" height="64" viewBox="0 0 64 64" fill="none" xmlns="http://www.w3.org/2000/svg">
<path d="M5 50.9C5 55.49 8.51 59 13.1 59H50.9C55.49 59 59 55.49 59 50.9V29.3H5V50.9ZM50.9 10.4H45.5V7.7C45.5 6.08 44.42 5 42.8 5C41.18 5 40.1 6.08 40.1 7.7V10.4H23.9V7.7C23.9 6.08 22.82 5 21.2 5C19.58 5 18.5 6.08 18.5 7.7V10.4H13.1C8.51 10.4 5 13.91 5 18.5V23.9H59V18.5C59 13.91 55.49 10.4 50.9 10.4Z" fill="#37B3E0"/>
<path d="M32 51.2C35.96 51.2 39.2 47.96 39.2 44C39.2 40.04 35.96 36.8 32 36.8C28.04 36.8 24.8 40.04 24.8 44C24.8 47.96 28.04 51.2 32 51.2ZM32 35C36.95 35 41 39.05 41 44C41 48.95 36.95 53 32 53C27.05 53 23 48.95 23 44C23 39.05 27.05 35 32 35ZM34.97 47.78L33.8 48.5L31.1 43.82V39.5H32.45V43.46L34.97 47.78Z" fill="white"/>
</svg>
