<svg width="64" height="64" viewBox="0 0 64 64" fill="none" xmlns="http://www.w3.org/2000/svg">
<path d="M5 50.9C5 55.49 8.51 59 13.1 59H50.9C55.49 59 59 55.49 59 50.9V29.3H5V50.9ZM50.9 10.4H45.5V7.7C45.5 6.08 44.42 5 42.8 5C41.18 5 40.1 6.08 40.1 7.7V10.4H23.9V7.7C23.9 6.08 22.82 5 21.2 5C19.58 5 18.5 6.08 18.5 7.7V10.4H13.1C8.51 10.4 5 13.91 5 18.5V23.9H59V18.5C59 13.91 55.49 10.4 50.9 10.4Z" fill="#37B3E0"/>
<path d="M35.7141 35.2638L35.6271 35.1936C35.4347 35.057 35.1933 34.9886 34.9486 35.0016C34.7039 35.0145 34.4731 35.1078 34.2998 35.2638L34.2218 35.3421C34.07 35.5151 33.9941 35.7322 34.0085 35.9522C34.0229 36.1722 34.1266 36.3798 34.2998 36.5355L35.5991 37.7029H30.0001L29.7601 37.7065C27.9469 37.762 26.2285 38.449 24.9673 39.6227C23.7061 40.7964 23.0008 42.3649 23 43.9975C22.9971 45.248 23.4114 46.4705 24.1892 47.5067C24.3435 47.7008 24.5771 47.8317 24.8386 47.8708C25.1002 47.9099 25.3683 47.8538 25.5839 47.715C25.7996 47.5762 25.9451 47.366 25.9886 47.1307C26.032 46.8953 25.9697 46.654 25.8155 46.46L25.6804 46.2638C25.2378 45.5802 25.0033 44.8036 25.0007 44.0124C24.9982 43.2212 25.2276 42.4434 25.6659 41.7575C26.1042 41.0716 26.7358 40.5019 27.4969 40.1059C28.2581 39.7099 29.1219 39.5016 30.0011 39.502H35.597L34.2998 40.6693L34.2218 40.7476C34.0594 40.9273 33.9804 41.1565 34.0011 41.3874C34.0219 41.6183 34.1409 41.833 34.3333 41.9869C34.5257 42.1408 34.7767 42.2219 35.0339 42.2134C35.2912 42.2048 35.5348 42.1072 35.7141 41.941L38.7206 39.2383L38.7976 39.16C38.9494 38.987 39.0253 38.7699 39.0109 38.5499C38.9965 38.3299 38.8928 38.1223 38.7196 37.9666L35.7141 35.2638ZM41.7901 40.4578C41.662 40.3099 41.4857 40.2017 41.2859 40.1484C41.0861 40.0951 40.8728 40.0994 40.6758 40.1606C40.4789 40.2218 40.3081 40.3368 40.1874 40.4897C40.0667 40.6426 40.0021 40.8256 40.0028 41.0131C40.0028 41.2012 40.0668 41.3749 40.1748 41.518C40.6721 42.1959 40.9561 42.9823 40.9966 43.7938C41.0372 44.6052 40.8327 45.4114 40.405 46.1267C39.9773 46.842 39.3423 47.4397 38.5674 47.8564C37.7926 48.273 36.9068 48.4931 36.0041 48.4931H30.4152L31.7094 47.3321L31.7924 47.2457C31.9286 47.0869 32.002 46.8918 32.0009 46.6913C31.9999 46.4907 31.9244 46.2962 31.7864 46.1387L31.7094 46.0595L31.6144 45.9839C31.4378 45.861 31.2205 45.7948 30.9973 45.7958C30.774 45.7968 30.5575 45.8649 30.3822 45.9893L30.2942 46.0595L27.2887 48.7622L27.2057 48.8477C27.0692 49.0065 26.9957 49.2018 26.9968 49.4026C26.9979 49.6033 27.0735 49.798 27.2117 49.9556L27.2887 50.0339L30.2942 52.7367L30.3892 52.8123C30.5823 52.9465 30.8233 53.0125 31.0667 52.998C31.3102 52.9835 31.5394 52.8894 31.7111 52.7334C31.8828 52.5775 31.9853 52.3704 31.9991 52.1512C32.013 51.932 31.9374 51.7158 31.7864 51.5432L31.7094 51.4649L30.4052 50.2922H36.0021L36.2422 50.2895C37.4931 50.2509 38.7096 49.911 39.7649 49.3053C40.8202 48.6997 41.6757 47.8504 42.2422 46.846C42.8087 45.8416 43.0655 44.7189 42.9858 43.5948C42.9061 42.4708 42.4928 41.3865 41.789 40.4551V40.4578H41.7901Z" fill="white"/>
</svg>
