<svg width="28" height="28" viewBox="0 0 28 28" fill="none" xmlns="http://www.w3.org/2000/svg">
<g id="material-symbols:edit-note">
<g id="Group 1000001850">
<path id="Vector" d="M18.8705 4.22949C19.0522 4.24581 19.1316 4.46774 19.0011 4.5972L9.94987 13.6484C9.84762 13.7507 9.7744 13.8784 9.73773 14.0183L8.64984 18.1849C8.61393 18.3226 8.61465 18.4673 8.65194 18.6046C8.68923 18.742 8.76178 18.8671 8.86241 18.9678C8.96303 19.0684 9.08822 19.1409 9.22554 19.1782C9.36287 19.2155 9.50756 19.2162 9.64526 19.1803L13.8108 18.0924C13.9508 18.0554 14.0784 17.9818 14.1807 17.8792L23.3603 8.69962C23.389 8.67014 23.4255 8.6495 23.4656 8.64015C23.5057 8.6308 23.5476 8.63313 23.5864 8.64686C23.6252 8.6606 23.6593 8.68516 23.6846 8.71765C23.7098 8.75013 23.7253 8.78918 23.729 8.83017C23.729 12.5 23.6638 17.2115 23.6638 21C23.6638 22.5 23 23.719 21 23.719C16.8092 23.719 11.6896 23.719 7 23.719C5 23.719 4.33637 22.5 4.33637 20.5C4.33639 16.7114 4.33636 11.255 4.33637 7C4.33637 5.5 5 4.31435 7 4.31435C10.6896 4.31397 15 4.23003 18.8705 4.22949Z" fill="black"/>
<path id="Vector_2" d="M20.3348 5.57014C20.3601 5.54481 20.3901 5.52471 20.4231 5.511C20.4562 5.49729 20.4916 5.49023 20.5274 5.49023C20.5632 5.49023 20.5986 5.49729 20.6316 5.511C20.6647 5.52471 20.6947 5.54481 20.7199 5.57014L22.2582 7.1095C22.309 7.16048 22.3376 7.22952 22.3376 7.30151C22.3376 7.37349 22.309 7.44254 22.2582 7.49352L13.2364 16.5175C13.202 16.5516 13.1592 16.576 13.1123 16.5883L11.0301 17.1322C10.9842 17.1442 10.936 17.1439 10.8902 17.1315C10.8444 17.1191 10.8027 17.0949 10.7692 17.0613C10.7356 17.0278 10.7114 16.9861 10.699 16.9403C10.6866 16.8945 10.6863 16.8463 10.6983 16.8004L11.2423 14.7182C11.2544 14.6713 11.2788 14.6285 11.313 14.5942L20.3348 5.57014Z" fill="black"/>
</g>
</g>
</svg>
