<svg width="28" height="28" viewBox="0 0 28 28" fill="none" xmlns="http://www.w3.org/2000/svg">
<g id="visibility">
<mask id="mask0_5163_149" style="mask-type:alpha" maskUnits="userSpaceOnUse" x="0" y="0" width="28" height="28">
<rect id="Bounding box" width="28" height="28" fill="#D9D9D9"/>
</mask>
<g mask="url(#mask0_5163_149)">
<path id="visibility_2" d="M14.0001 18.667C15.4584 18.667 16.698 18.1566 17.7188 17.1357C18.7397 16.1149 19.2501 14.8753 19.2501 13.417C19.2501 11.9587 18.7397 10.7191 17.7188 9.69824C16.698 8.67741 15.4584 8.16699 14.0001 8.16699C12.5417 8.16699 11.3022 8.67741 10.2813 9.69824C9.2605 10.7191 8.75008 11.9587 8.75008 13.417C8.75008 14.8753 9.2605 16.1149 10.2813 17.1357C11.3022 18.1566 12.5417 18.667 14.0001 18.667ZM14.0001 16.567C13.1251 16.567 12.3813 16.2607 11.7688 15.6482C11.1563 15.0357 10.8501 14.292 10.8501 13.417C10.8501 12.542 11.1563 11.7982 11.7688 11.1857C12.3813 10.5732 13.1251 10.267 14.0001 10.267C14.8751 10.267 15.6188 10.5732 16.2313 11.1857C16.8438 11.7982 17.1501 12.542 17.1501 13.417C17.1501 14.292 16.8438 15.0357 16.2313 15.6482C15.6188 16.2607 14.8751 16.567 14.0001 16.567ZM14.0001 22.167C11.1612 22.167 8.57508 21.3746 6.24175 19.7899C3.90841 18.2052 2.21675 16.0809 1.16675 13.417C2.21675 10.7531 3.90841 8.6288 6.24175 7.04408C8.57508 5.45935 11.1612 4.66699 14.0001 4.66699C16.839 4.66699 19.4251 5.45935 21.7584 7.04408C24.0917 8.6288 25.7834 10.7531 26.8334 13.417C25.7834 16.0809 24.0917 18.2052 21.7584 19.7899C19.4251 21.3746 16.839 22.167 14.0001 22.167Z" fill="#1C1B1F"/>
</g>
</g>
</svg>
