<svg width="10" height="11" viewBox="0 0 10 11" fill="none" xmlns="http://www.w3.org/2000/svg">
<g clip-path="url(#clip0_1440_3030)">
<path d="M1 1.60742C1 0.986914 1.4629 0.482422 2.03226 0.482422H4.6129V2.73242C4.6129 3.04355 4.84355 3.29492 5.12903 3.29492H7.19355V5.82617H3.83871C3.26935 5.82617 2.80645 6.33066 2.80645 6.95117V9.48242H2.03226C1.4629 9.48242 1 8.97793 1 8.35742V1.60742ZM7.19355 2.73242H5.12903V0.482422L7.19355 2.73242ZM3.83871 6.66992H4.35484C4.85323 6.66992 5.25806 7.11113 5.25806 7.6543C5.25806 8.19746 4.85323 8.63867 4.35484 8.63867H4.09677V9.20117C4.09677 9.35586 3.98065 9.48242 3.83871 9.48242C3.69677 9.48242 3.58065 9.35586 3.58065 9.20117V6.95117C3.58065 6.79648 3.69677 6.66992 3.83871 6.66992ZM4.35484 8.07617C4.56935 8.07617 4.74194 7.88809 4.74194 7.6543C4.74194 7.42051 4.56935 7.23242 4.35484 7.23242H4.09677V8.07617H4.35484ZM5.90323 6.66992H6.41935C6.84677 6.66992 7.19355 7.04785 7.19355 7.51367V8.63867C7.19355 9.10449 6.84677 9.48242 6.41935 9.48242H5.90323C5.76129 9.48242 5.64516 9.35586 5.64516 9.20117V6.95117C5.64516 6.79648 5.76129 6.66992 5.90323 6.66992ZM6.41935 8.91992C6.56129 8.91992 6.67742 8.79336 6.67742 8.63867V7.51367C6.67742 7.35898 6.56129 7.23242 6.41935 7.23242H6.16129V8.91992H6.41935ZM7.70968 6.95117C7.70968 6.79648 7.82581 6.66992 7.96774 6.66992H8.74194C8.88387 6.66992 9 6.79648 9 6.95117C9 7.10586 8.88387 7.23242 8.74194 7.23242H8.22581V7.79492H8.74194C8.88387 7.79492 9 7.92148 9 8.07617C9 8.23086 8.88387 8.35742 8.74194 8.35742H8.22581V9.20117C8.22581 9.35586 8.10968 9.48242 7.96774 9.48242C7.82581 9.48242 7.70968 9.35586 7.70968 9.20117V6.95117Z" fill="black"/>
</g>
<defs>
<clipPath id="clip0_1440_3030">
<rect width="9.57798" height="9.548" fill="white" transform="translate(0.174316 0.720703)"/>
</clipPath>
</defs>
</svg>
