<svg width="56" height="57" viewBox="0 0 56 57" fill="none" xmlns="http://www.w3.org/2000/svg">
<path d="M31.5244 50.3988C30.1991 50.6273 28.8501 50.7645 27.4539 50.7645C14.4377 50.7645 3.78812 40.4798 3.78812 27.9097C3.78812 15.3396 14.4377 5.05493 27.4539 5.05493C40.47 5.05493 51.1196 15.3396 51.1196 27.9097C51.1196 29.2581 50.9776 30.5609 50.741 31.8407C48.6795 30.7552 46.3679 30.1892 44.0199 30.1952C41.038 30.1952 38.2691 31.0865 35.9735 32.6178L28.6372 28.3668V16.4823H25.0873V30.1952L33.2046 35.0175C31.0121 37.4949 29.8115 40.6491 29.8204 43.908C29.8204 46.2621 30.4358 48.479 31.5244 50.3988ZM49.037 35.8175L44.0199 40.6855L39.0028 35.8403L35.6659 39.0628L40.683 43.908L35.6659 48.7533L39.0028 51.9986L44.0199 47.1306L49.037 51.9986L52.3976 48.7533L47.3568 43.908L52.3976 39.0628L49.037 35.8175Z" fill="#37B3E0"/>
</svg>
