<svg width="26" height="28" viewBox="0 0 26 28" fill="none" xmlns="http://www.w3.org/2000/svg">
<path d="M8.00504 4.99919C8.00519 4.0531 8.27376 3.12648 8.77954 2.32695C9.28533 1.52742 10.0076 0.887789 10.8624 0.482365C11.7172 0.0769404 12.6695 -0.0776424 13.6087 0.0365722C14.5478 0.150787 15.4353 0.529111 16.168 1.1276C16.9007 1.72609 17.4486 2.52018 17.748 3.41764C18.0475 4.31509 18.0861 5.27908 17.8595 6.19762C17.6329 7.11616 17.1503 7.95156 16.4679 8.60678C15.7854 9.26201 14.931 9.71016 14.004 9.89919V12.9992H19.272C19.9967 12.9992 20.6917 13.287 21.2042 13.7993C21.7167 14.3116 22.0048 15.0065 22.005 15.7312V18.0992C23.2164 18.3501 24.2918 19.041 25.0235 20.0384C25.7553 21.0359 26.0914 22.2691 25.9671 23.4999C25.8428 24.7307 25.2668 25.8718 24.3504 26.7027C23.4339 27.5337 22.2421 27.9956 21.005 27.9992C19.7651 28.0004 18.5689 27.5409 17.6487 26.7098C16.7285 25.8787 16.1499 24.7354 16.0253 23.5017C15.9007 22.268 16.2389 21.032 16.9743 20.0337C17.7098 19.0354 18.7899 18.3459 20.005 18.0992V15.7312C20.005 15.5368 19.9278 15.3503 19.7903 15.2129C19.6529 15.0754 19.4664 14.9982 19.272 14.9982H6.73804C6.54363 14.9982 6.35719 15.0754 6.21973 15.2129C6.08226 15.3503 6.00504 15.5368 6.00504 15.7312V18.0992C7.21639 18.3501 8.29179 19.041 9.02353 20.0384C9.75527 21.0359 10.0914 22.2691 9.96712 23.4999C9.8428 24.7307 9.2668 25.8718 8.35037 26.7027C7.43394 27.5337 6.2421 27.9956 5.00504 27.9992C3.76508 28.0004 2.5689 27.5409 1.6487 26.7098C0.728504 25.8787 0.149939 24.7354 0.0253254 23.5017C-0.0992882 22.268 0.23894 21.032 0.97435 20.0337C1.70976 19.0354 2.78988 18.3459 4.00504 18.0992V15.7312C4.00504 15.3723 4.07573 15.0169 4.21307 14.6853C4.35042 14.3537 4.55173 14.0524 4.80551 13.7987C5.0593 13.5449 5.36058 13.3436 5.69216 13.2062C6.02375 13.0689 6.37913 12.9982 6.73804 12.9982H12.005V9.89819C10.876 9.66734 9.86133 9.05374 9.1325 8.16111C8.40367 7.26848 8.00541 6.15157 8.00504 4.99919Z" fill="black"/>
</svg>
