<svg width="56" height="56" viewBox="0 0 56 56" fill="none" xmlns="http://www.w3.org/2000/svg">
<path d="M30.5174 48.7513C29.2667 48.9748 27.9937 49.1089 26.676 49.1089C14.3926 49.1089 4.34253 39.0496 4.34253 26.7548C4.34253 14.46 14.3926 4.40063 26.676 4.40063C38.9594 4.40063 49.0095 14.46 49.0095 26.7548C49.0095 28.0737 48.8755 29.3479 48.6521 30.5997C46.7067 29.5379 44.5252 28.9844 42.3094 28.9902C39.4954 28.9902 36.8824 29.862 34.7161 31.3597L27.7927 27.2019V15.5777H24.4427V28.9902L32.103 33.7069C30.034 36.1301 28.9009 39.2151 28.9094 42.4027C28.9094 44.7052 29.49 46.8735 30.5174 48.7513ZM40.0761 33.461V40.1673H33.376V44.6381H40.0761V51.3443H44.5428V44.6381H51.2428V40.1673H44.5428V33.461H40.0761Z" fill="#37B3E0"/>
</svg>
