<svg width="30" height="30" viewBox="0 0 30 30" fill="none" xmlns="http://www.w3.org/2000/svg">
<path d="M21.163 29V15.5C21.5276 15.5 21.8809 15.5283 22.2227 15.585C22.5646 15.6417 22.895 15.7259 23.2141 15.8375V28.6625C22.895 28.775 22.5646 28.8596 22.2227 28.9163C21.8809 28.973 21.5276 29.0009 21.163 29ZM17.7445 28.055V16.445C18.0635 16.265 18.3885 16.1021 18.7194 15.9563C19.0503 15.8105 19.4091 15.7034 19.7956 15.635V28.865C19.4081 28.7975 19.049 28.6908 18.7181 28.545C18.3872 28.3992 18.0626 28.2359 17.7445 28.055ZM24.5815 28.055V16.445C25.607 17.03 26.4334 17.8287 27.0606 18.8412C27.6878 19.8537 28.0009 20.99 28 22.25C28 23.51 27.6864 24.6462 27.0592 25.6587C26.432 26.6712 25.6061 27.47 24.5815 28.055ZM16.3771 27.0425C15.7389 26.435 15.2376 25.7204 14.8729 24.8987C14.5083 24.077 14.326 23.1941 14.326 22.25C14.326 21.305 14.5083 20.4162 14.8729 19.5837C15.2376 18.7512 15.7389 18.0312 16.3771 17.4237V27.0425ZM14.4627 29H11.7621C11.4202 29 11.124 28.8875 10.8733 28.6625C10.6226 28.4375 10.4744 28.1562 10.4289 27.8187L10.0186 24.68C9.72237 24.5675 9.44297 24.4325 9.18043 24.275C8.91789 24.1175 8.66173 23.9487 8.41195 23.7687L5.43784 24.9837C5.11878 25.1187 4.79972 25.1358 4.48066 25.035C4.1616 24.9342 3.91091 24.7371 3.72859 24.4437L1.19889 20.09C1.01657 19.7975 0.959599 19.4825 1.02797 19.145C1.09634 18.8075 1.26727 18.5375 1.54075 18.335L4.10463 16.4112C4.08184 16.2537 4.07044 16.1016 4.07044 15.9549V15.045C4.07044 14.8983 4.08184 14.7462 4.10463 14.5887L1.54075 12.665C1.26727 12.4625 1.09634 12.1925 1.02797 11.855C0.959599 11.5175 1.01657 11.2025 1.19889 10.91L3.72859 6.55625C3.91091 6.26375 4.1616 6.06665 4.48066 5.96495C4.79972 5.86325 5.11878 5.88035 5.43784 6.01625L8.41195 7.23125C8.66264 7.05125 8.91925 6.8825 9.18179 6.725C9.44434 6.5675 9.72329 6.4325 10.0186 6.32L10.4289 3.18125C10.4744 2.84375 10.6226 2.5625 10.8733 2.3375C11.124 2.1125 11.4202 2 11.7621 2H16.8898C17.2317 2 17.528 2.1125 17.7787 2.3375C18.0293 2.5625 18.1775 2.84375 18.2231 3.18125L18.6333 6.32C18.9296 6.4325 19.209 6.5675 19.4715 6.725C19.734 6.8825 19.9902 7.05125 20.24 7.23125L23.2141 6.01625C23.5331 5.88125 23.8522 5.86415 24.1713 5.96495C24.4903 6.06575 24.741 6.26285 24.9233 6.55625L27.453 10.91C27.6354 11.2025 27.6923 11.5175 27.624 11.855C27.5556 12.1925 27.3847 12.4625 27.1112 12.665L25.5387 13.8462C24.855 13.5087 24.1485 13.25 23.4192 13.07C22.6899 12.89 21.9378 12.8 21.163 12.8C20.7072 12.8 20.2687 12.8396 19.8475 12.9188C19.4264 12.998 18.9988 13.0934 18.5649 13.205C18.1319 12.4625 17.5453 11.8716 16.8051 11.4324C16.0648 10.9932 15.2613 10.7741 14.3943 10.775C13.0725 10.775 11.9444 11.2362 11.01 12.1587C10.0756 13.0812 9.60842 14.195 9.60842 15.5C9.60842 16.355 9.81946 17.1425 10.2415 17.8625C10.6636 18.5825 11.2388 19.1562 11.9672 19.5837C11.8305 20.0337 11.7338 20.5008 11.6773 20.985C11.6208 21.4692 11.5921 21.9471 11.5912 22.4187C11.6139 23.6787 11.8706 24.8771 12.361 26.0138C12.8514 27.1505 13.552 28.1459 14.4627 29Z" fill="black"/>
</svg>
