<svg width="28" height="28" viewBox="0 0 28 28" fill="none" xmlns="http://www.w3.org/2000/svg">
<circle cx="14" cy="14" r="14" fill="#FAFBFD"/>
<path d="M10.7922 9.10016V6.65016C10.7922 6.43357 10.8721 6.22585 11.0143 6.07269C11.1565 5.91954 11.3494 5.8335 11.5505 5.8335H17.6172C17.8183 5.8335 18.0112 5.91954 18.1534 6.07269C18.2956 6.22585 18.3755 6.43357 18.3755 6.65016V9.10016H22.1672V10.7335H20.6505V21.3502C20.6505 21.5668 20.5706 21.7745 20.4284 21.9276C20.2862 22.0808 20.0933 22.1668 19.8922 22.1668H9.27549C9.07437 22.1668 8.88148 22.0808 8.73927 21.9276C8.59705 21.7745 8.51715 21.5668 8.51715 21.3502V10.7335H7.00049V9.10016H10.7922ZM15.6561 15.6335L16.9968 14.1896L15.9246 13.0349L14.5838 14.4787L13.2431 13.0349L12.1708 14.1896L13.5115 15.6335L12.1708 17.0774L13.2431 18.2321L14.5838 16.7883L15.9246 18.2321L16.9968 17.0774L15.6561 15.6335ZM12.3088 7.46683V9.10016H16.8588V7.46683H12.3088Z" fill="#818183"/>
</svg>
