<svg width="21" height="20" viewBox="0 0 21 20" fill="none" xmlns="http://www.w3.org/2000/svg">
<path d="M13.2141 0.293134L13.1271 0.215132C12.9347 0.0632868 12.6933 -0.0126547 12.4486 0.00172416C12.2039 0.016103 11.9731 0.119801 11.7998 0.293134L11.7218 0.380135C11.57 0.572306 11.4941 0.813529 11.5085 1.05799C11.5229 1.30244 11.6266 1.5331 11.7998 1.70615L13.0991 3.00317H7.50015L7.26011 3.00717C5.44686 3.06887 3.72846 3.83226 2.46729 5.13634C1.20612 6.44042 0.50078 8.18324 0.500015 9.99727C0.497123 11.3867 0.911394 12.745 1.68921 13.8963C1.84346 14.1119 2.07705 14.2575 2.33862 14.3009C2.60018 14.3443 2.86828 14.2821 3.08393 14.1278C3.29959 13.9736 3.44514 13.74 3.48856 13.4785C3.53198 13.217 3.46972 12.9489 3.31547 12.7333L3.18045 12.5153C2.73775 11.7558 2.50329 10.8929 2.50074 10.0138C2.49818 9.13468 2.72762 8.27046 3.1659 7.50836C3.60417 6.74626 4.23577 6.11325 4.99694 5.67323C5.75811 5.2332 6.62191 5.00174 7.50115 5.0022H13.097L11.7998 6.29922L11.7218 6.38622C11.5594 6.58591 11.4804 6.84056 11.5011 7.0971C11.5219 7.35363 11.6409 7.59226 11.8333 7.76324C12.0257 7.93421 12.2767 8.02434 12.5339 8.01484C12.7912 8.00534 13.0348 7.89694 13.2141 7.71224L16.2206 4.7092L16.2976 4.62219C16.4494 4.43002 16.5253 4.1888 16.5109 3.94434C16.4965 3.69989 16.3928 3.46923 16.2196 3.29618L13.2141 0.293134ZM19.2901 6.06421C19.162 5.89987 18.9857 5.77967 18.7859 5.72045C18.5861 5.66123 18.3728 5.66596 18.1758 5.73396C17.9789 5.80196 17.8081 5.92983 17.6874 6.09968C17.5667 6.26954 17.5021 6.47287 17.5028 6.68122C17.5028 6.89023 17.5668 7.08323 17.6748 7.24223C18.1721 7.99544 18.4561 8.86925 18.4966 9.77086C18.5372 10.6725 18.3327 11.5682 17.905 12.363C17.4773 13.1578 16.8423 13.8219 16.0674 14.2849C15.2926 14.7478 14.4068 14.9923 13.5041 14.9923H7.91521L9.20942 13.7023L9.29244 13.6063C9.42865 13.4299 9.50203 13.2131 9.50095 12.9903C9.49986 12.7674 9.42436 12.5513 9.28643 12.3763L9.20942 12.2883L9.11441 12.2043C8.93776 12.0678 8.72054 11.9942 8.49727 11.9953C8.27401 11.9964 8.05752 12.0721 7.88221 12.2103L7.79419 12.2883L4.78871 15.2913L4.70569 15.3863C4.56924 15.5628 4.49571 15.7798 4.49679 16.0029C4.49788 16.2259 4.57352 16.4422 4.7117 16.6174L4.78871 16.7044L7.79419 19.7074L7.88921 19.7914C8.08231 19.9405 8.32327 20.0139 8.56673 19.9978C8.81019 19.9817 9.03935 19.8771 9.21108 19.7038C9.38281 19.5305 9.48526 19.3004 9.49914 19.0569C9.51301 18.8133 9.43737 18.5731 9.28643 18.3814L9.20942 18.2944L7.90521 16.9914H13.5021L13.7422 16.9884C14.9931 16.9454 16.2096 16.5678 17.2649 15.8948C18.3202 15.2218 19.1757 14.2782 19.7422 13.1622C20.3087 12.0462 20.5655 10.7988 20.4858 9.54982C20.4061 8.30087 19.9928 7.09615 19.289 6.06121V6.06421H19.2901Z" fill="white"/>
</svg>
