<svg width="30" height="30" viewBox="0 0 30 30" fill="none" xmlns="http://www.w3.org/2000/svg">
<path d="M15.7944 22.9828C15.3217 23.3248 14.652 23.3248 14.1793 22.9828L6.10415 17.1438C5.63145 16.8018 4.97493 16.8018 4.50224 17.1438C3.83259 17.6324 3.83259 18.573 4.50224 19.0616L13.3784 25.487C14.3238 26.171 15.65 26.171 16.6085 25.487L25.4846 19.0616C26.1543 18.573 26.1543 17.6324 25.4846 17.1438L25.4715 17.1316C24.9988 16.7896 24.3423 16.7896 23.8696 17.1316L15.7944 22.9828ZM16.6216 19.2937L25.4978 12.8684C26.1674 12.3798 26.1674 11.427 25.4978 10.9384L16.6216 4.51305C15.6762 3.82898 14.35 3.82898 13.3915 4.51305L4.51537 10.9506C3.84572 11.4392 3.84572 12.392 4.51537 12.8806L13.3915 19.3059C14.3369 19.99 15.6762 19.99 16.6216 19.2937Z" fill="black"/>
</svg>
