<svg width="30" height="30" viewBox="0 0 30 30" fill="none" xmlns="http://www.w3.org/2000/svg">
<g clip-path="url(#clip0_1517_5241)">
<path d="M19.0591 4.82372C19.2516 4.82372 19.4249 4.66971 19.4249 4.45794C19.4249 4.26543 19.2709 4.09216 19.0591 4.09216H14.458C14.2462 4.11141 14.0922 4.26543 14.0922 4.47719C14.0922 4.66971 14.2462 4.84297 14.458 4.84297H16.1714C16.6334 4.84297 17.0377 5.15099 17.1917 5.57453H14.843C14.6313 5.55527 14.4773 5.70929 14.4773 5.92105C14.4773 6.11357 14.6313 6.28683 14.843 6.28683H17.1917C17.0377 6.71036 16.6334 7.01838 16.1714 7.01838H14.6698C14.535 7.01838 14.4002 7.09539 14.3425 7.23015C14.2847 7.36491 14.304 7.49967 14.4002 7.61518L17.3842 11.1382C17.4612 11.2152 17.5575 11.273 17.6537 11.273C17.7307 11.273 17.827 11.2537 17.8848 11.196C18.0388 11.0612 18.058 10.8302 17.9233 10.6954L15.4591 7.73069H16.1714C17.0377 7.73069 17.7693 7.11464 17.9425 6.28683H19.0591C19.2516 6.28683 19.4249 6.13282 19.4249 5.92105C19.4249 5.72854 19.2709 5.55527 19.0591 5.55527H17.9425C17.8848 5.28575 17.7693 5.03548 17.6152 4.82372H19.0591Z" fill="black"/>
<path fill-rule="evenodd" clip-rule="evenodd" d="M14.4538 4H19.0591C19.3249 4 19.517 4.21772 19.517 4.45796C19.517 4.72376 19.2993 4.91591 19.0591 4.91591H17.7868C17.8873 5.08284 17.9658 5.26752 18.0155 5.46311H19.0591C19.3249 5.46311 19.517 5.68083 19.517 5.92107C19.517 6.18687 19.2993 6.37902 19.0591 6.37902H18.0158C17.8071 7.21139 17.0565 7.82288 16.1713 7.82288H15.6555L17.9916 10.6335C18.1654 10.8111 18.1324 11.0996 17.9477 11.2633C17.8639 11.3453 17.7384 11.3652 17.6537 11.3652C17.5222 11.3652 17.4037 11.2881 17.319 11.2034L17.3163 11.2007L14.3294 7.67421C14.2111 7.53231 14.1862 7.36076 14.2577 7.19386C14.3314 7.02197 14.5017 6.92622 14.6697 6.92622H16.1713C16.5458 6.92622 16.8815 6.70327 17.0506 6.37902H14.843C14.5772 6.37902 14.385 6.1613 14.385 5.92107C14.385 5.7926 14.432 5.67636 14.5167 5.59477C14.601 5.51363 14.7175 5.47176 14.847 5.48236H17.0506C16.8815 5.15811 16.5458 4.93516 16.1713 4.93516H14.458C14.1922 4.93516 14 4.71744 14 4.47721C14 4.21332 14.1949 4.02353 14.4496 4.00038L14.4538 4ZM17.1534 5.48236C17.1675 5.5124 17.1803 5.54315 17.1917 5.57454H14.843C14.6312 5.55529 14.4772 5.7093 14.4772 5.92107C14.4772 6.11358 14.6312 6.28684 14.843 6.28684H17.1917C17.1803 6.31823 17.1675 6.34898 17.1534 6.37902C16.9774 6.75434 16.5991 7.0184 16.1713 7.0184H14.6697C14.535 7.0184 14.4002 7.09541 14.3424 7.23017C14.2847 7.36493 14.3039 7.49969 14.4002 7.6152L17.3842 11.1382C17.4612 11.2152 17.5574 11.273 17.6537 11.273C17.7307 11.273 17.827 11.2537 17.8847 11.196C18.0387 11.0612 18.058 10.8302 17.9232 10.6954L15.459 7.7307H16.1713C17.0377 7.7307 17.7692 7.11466 17.9425 6.28684H19.0591C19.2516 6.28684 19.4248 6.13283 19.4248 5.92107C19.4248 5.72855 19.2708 5.55529 19.0591 5.55529H17.9425C17.8929 5.32392 17.8007 5.10673 17.6782 4.91591C17.658 4.88445 17.637 4.85371 17.6152 4.82373H19.0591C19.2516 4.82373 19.4248 4.66972 19.4248 4.45796C19.4248 4.26544 19.2708 4.09218 19.0591 4.09218H14.458C14.2462 4.11143 14.0922 4.26544 14.0922 4.47721C14.0922 4.66972 14.2462 4.84299 14.458 4.84299H16.1713C16.5991 4.84299 16.9774 5.10705 17.1534 5.48236Z" fill="black"/>
<path d="M9.88351 7.54468C9.88351 11.2004 12.8303 14.1472 16.486 14.1472C20.1417 14.1472 23.0885 11.2004 23.0885 7.54468C23.0885 3.88815 20.0876 0.942163 16.486 0.942163C12.8844 0.942163 9.88351 3.88815 9.88351 7.54468ZM11.0901 7.54468C11.0901 4.58791 13.5293 2.14871 16.486 2.14871C19.4952 2.14871 21.882 4.58696 21.882 7.54468C21.882 10.5014 19.4428 12.9406 16.486 12.9406C13.5293 12.9406 11.0901 10.5014 11.0901 7.54468Z" fill="black" stroke="black" stroke-width="0.3"/>
<path fill-rule="evenodd" clip-rule="evenodd" d="M16.486 14.0894C12.8622 14.0894 9.94135 11.1685 9.94135 7.54469C9.94135 3.92041 12.9161 1 16.486 1C20.056 1 23.0307 3.92041 23.0307 7.54469C23.0307 11.1685 20.1098 14.0894 16.486 14.0894ZM16.486 2.09091C13.4973 2.09091 11.0323 4.55599 11.0323 7.54469C11.0323 10.5334 13.4973 12.9985 16.486 12.9985C19.4747 12.9985 21.9398 10.5334 21.9398 7.54469C21.9398 4.55541 19.5275 2.09091 16.486 2.09091ZM10.0335 7.54469C10.0335 11.1176 12.9132 13.9972 16.486 13.9972C20.0589 13.9972 22.9385 11.1176 22.9385 7.54469C22.9385 3.97181 20.0056 1.09218 16.486 1.09218C12.9665 1.09218 10.0335 3.97181 10.0335 7.54469ZM10.9401 7.54469C10.9401 4.50508 13.4464 1.99873 16.486 1.99873C19.579 1.99873 22.032 4.50508 22.032 7.54469C22.032 10.5843 19.5256 13.0907 16.486 13.0907C13.4464 13.0907 10.9401 10.5843 10.9401 7.54469Z" fill="black"/>
<path d="M21.3276 18.1384L25.0154 13.4744C25.5673 12.8386 26.18 12.2555 26.8892 12.0648C28.1198 11.7339 28.407 13.4834 27.6571 14.5136L20.9341 23.7498L20.9165 23.7789C20.1875 24.9829 18.959 25.8261 17.4551 25.8261H10.9162C10.2089 25.8261 9.56547 25.847 8.98034 26.0304C8.36665 26.2228 7.83743 26.5853 7.33034 27.2134L7.3214 27.2245C6.30265 28.5886 4.24615 28.5514 3.27735 27.1514L2.49306 26.018C1.60912 24.7407 1.67824 23.0323 2.66248 21.8305L5.97126 17.7904L5.9729 17.7883C6.67171 16.9227 7.19949 16.371 7.8466 16.0136C8.4918 15.6573 9.31455 15.4633 10.6319 15.4633H16.0497C16.9 15.4633 17.5215 16.2995 17.0528 17.0089C16.5254 17.807 15.7522 18.4309 14.6121 18.4309H11.437C10.9923 18.4309 10.6319 18.7914 10.6319 19.2361C10.6319 19.6808 10.9923 20.0413 11.437 20.0413H17.4551C17.5022 20.0413 17.5487 20.0414 17.5947 20.0414C18.3382 20.0424 18.9413 20.0431 19.5043 19.7972C20.1233 19.5269 20.6388 18.9915 21.3252 18.1413L21.3276 18.1384Z" fill="black"/>
</g>
<defs>
<clipPath id="clip0_1517_5241">
<rect width="30" height="30" fill="white"/>
</clipPath>
</defs>
</svg>
