<svg width="30" height="30" viewBox="0 0 30 30" fill="none" xmlns="http://www.w3.org/2000/svg">
<g clip-path="url(#clip0_1514_3510)">
<path d="M19.061 18.2508H18.0735L17.7235 17.9133C19.2235 16.1633 19.9985 13.7758 19.5735 11.2383C18.986 7.76328 16.086 4.98828 12.586 4.56328C7.29852 3.91328 2.84852 8.36328 3.49852 13.6508C3.92352 17.1508 6.69852 20.0508 10.1735 20.6383C12.711 21.0633 15.0985 20.2883 16.8485 18.7883L17.186 19.1383V20.1258L22.4985 25.4383C23.011 25.9508 23.8485 25.9508 24.361 25.4383C24.8735 24.9258 24.8735 24.0883 24.361 23.5758L19.061 18.2508ZM11.561 18.2508C8.44852 18.2508 5.93602 15.7383 5.93602 12.6258C5.93602 9.51328 8.44852 7.00078 11.561 7.00078C14.6735 7.00078 17.186 9.51328 17.186 12.6258C17.186 15.7383 14.6735 18.2508 11.561 18.2508Z" fill="white"/>
</g>
<defs>
<clipPath id="clip0_1514_3510">
<rect width="30" height="30" fill="white"/>
</clipPath>
</defs>
</svg>
