<svg width="27" height="27" viewBox="0 0 27 27" fill="none" xmlns="http://www.w3.org/2000/svg">
<path d="M16.0974 27C15.5629 27 15.1085 26.8123 14.7339 26.4369C14.3594 26.0614 14.1725 25.6063 14.1734 25.0714V16.0714C14.1734 15.5357 14.3607 15.0801 14.7352 14.7047C15.1097 14.3293 15.5638 14.142 16.0974 14.1429H25.076C25.6104 14.1429 26.0649 14.3306 26.4395 14.706C26.814 15.0814 27.0009 15.5366 27 16.0714V25.0714C27 25.6071 26.8127 26.0627 26.4382 26.4381C26.0637 26.8136 25.6096 27.0009 25.076 27H16.0974ZM16.0974 25.0714H25.076V24.0429C24.5416 23.3786 23.8895 22.848 23.12 22.4511C22.3504 22.0543 21.5059 21.8563 20.5867 21.8571C19.6675 21.8571 18.823 22.0556 18.0534 22.4524C17.2838 22.8493 16.6318 23.3794 16.0974 24.0429V25.0714ZM20.5867 20.5714C21.1211 20.5714 21.5756 20.3837 21.9502 20.0083C22.3247 19.6329 22.5115 19.1777 22.5107 18.6429C22.5107 18.1071 22.3234 17.6516 21.9489 17.2761C21.5743 16.9007 21.1203 16.7134 20.5867 16.7143C20.0523 16.7143 19.5978 16.902 19.2232 17.2774C18.8487 17.6529 18.6619 18.108 18.6627 18.6429C18.6627 19.1786 18.85 19.6341 19.2245 20.0096C19.599 20.385 20.0531 20.5723 20.5867 20.5714ZM9.36342 25.7143L8.85036 21.6C8.57245 21.4929 8.31036 21.3643 8.06409 21.2143C7.81782 21.0643 7.57753 20.9036 7.34323 20.7321L3.52732 22.3393L0 16.2321L3.30285 13.725C3.28147 13.575 3.27078 13.4301 3.27078 13.2904V12.4239C3.27078 12.2841 3.28147 12.1393 3.30285 11.9893L0 9.48214L3.52732 3.375L7.34323 4.98214C7.57839 4.81071 7.82423 4.65 8.08076 4.5C8.33729 4.35 8.59382 4.22143 8.85036 4.11428L9.36342 0H16.4181L16.9311 4.11428C17.209 4.22143 17.4711 4.35 17.7174 4.5C17.9637 4.65 18.2039 4.81071 18.4382 4.98214L22.2542 3.375L25.7815 9.48214L23.0558 11.5714H17.2518C16.9525 10.65 16.4181 9.88371 15.6485 9.27257C14.8789 8.66143 13.981 8.35628 12.9549 8.35714C11.715 8.35714 10.6568 8.79643 9.78029 9.675C8.9038 10.5536 8.46556 11.6143 8.46556 12.8571C8.46556 13.8857 8.75416 14.7857 9.33135 15.5571C9.90855 16.3286 10.6675 16.8643 11.6081 17.1643V25.7143H9.36342Z" fill="black"/>
</svg>
