<svg width="27" height="18" viewBox="0 0 27 18" fill="none" xmlns="http://www.w3.org/2000/svg">
<path d="M1.5 18H18C18.825 18 19.5 17.325 19.5 16.5C19.5 15.675 18.825 15 18 15H1.5C0.675 15 0 15.675 0 16.5C0 17.325 0.675 18 1.5 18ZM1.5 10.5H13.5C14.325 10.5 15 9.825 15 9C15 8.175 14.325 7.5 13.5 7.5H1.5C0.675 7.5 0 8.175 0 9C0 9.825 0.675 10.5 1.5 10.5ZM0 1.5C0 2.325 0.675 3 1.5 3H18C18.825 3 19.5 2.325 19.5 1.5C19.5 0.675 18.825 0 18 0H1.5C0.675 0 0 0.675 0 1.5ZM25.95 13.32L21.63 9L25.95 4.68C26.535 4.095 26.535 3.15 25.95 2.565C25.365 1.98 24.42 1.98 23.835 2.565L18.45 7.95C17.865 8.535 17.865 9.48 18.45 10.065L23.835 15.45C24.42 16.035 25.365 16.035 25.95 15.45C26.52 14.865 26.535 13.905 25.95 13.32Z" fill="black"/>
</svg>
