<svg width="14" height="17" viewBox="0 0 14 17" fill="none" xmlns="http://www.w3.org/2000/svg">
<path d="M10.3158 16.8506C9.29649 16.8506 8.42751 16.479 7.70884 15.7359C6.99018 14.9928 6.63109 14.0945 6.63158 13.0411C6.63158 11.9871 6.99091 11.0886 7.70958 10.3454C8.42825 9.60233 9.29698 9.23103 10.3158 9.23154C11.3351 9.23154 12.2041 9.60309 12.9227 10.3462C13.6414 11.0893 14.0005 11.9876 14 13.0411C14 14.095 13.6407 14.9936 12.922 15.7367C12.2033 16.4798 11.3346 16.8511 10.3158 16.8506ZM11.55 14.8506L12.0658 14.3173L10.6842 12.8887V10.7553H9.94737V13.1934L11.55 14.8506ZM1.47369 16.0887C1.06842 16.0887 0.721369 15.9393 0.432527 15.6407C0.143685 15.342 -0.000489977 14.9834 1.25101e-06 14.5649V3.89821C1.25101e-06 3.47916 0.144422 3.1203 0.433264 2.82163C0.722106 2.52297 1.06891 2.37389 1.47369 2.3744H4.55C4.68509 1.92995 4.94912 1.56475 5.34211 1.27878C5.73509 0.99281 6.16491 0.850079 6.63158 0.850587C7.12281 0.850587 7.56196 0.993571 7.94905 1.27954C8.33614 1.56551 8.59698 1.93046 8.73158 2.3744H11.7895C12.1947 2.3744 12.5418 2.52373 12.8306 2.8224C13.1195 3.12106 13.2636 3.47967 13.2632 3.89821V8.66011C13.0421 8.49503 12.8088 8.35535 12.5632 8.24106C12.3175 8.12678 12.0596 8.02519 11.7895 7.9363V3.89821H10.3158V6.18392H2.94737V3.89821H1.47369V14.5649H5.37895C5.46491 14.8442 5.56316 15.1109 5.67368 15.3649C5.78421 15.6188 5.9193 15.8601 6.07895 16.0887H1.47369ZM6.63158 3.89821C6.84035 3.89821 7.01547 3.82506 7.15695 3.67878C7.29842 3.53249 7.36891 3.35167 7.36842 3.1363C7.36842 2.92043 7.29768 2.73935 7.15621 2.59306C7.01474 2.44678 6.83986 2.37389 6.63158 2.3744C6.42281 2.3744 6.24768 2.44754 6.10621 2.59383C5.96474 2.74011 5.89425 2.92094 5.89474 3.1363C5.89474 3.35217 5.96547 3.53325 6.10695 3.67954C6.24842 3.82582 6.4233 3.89871 6.63158 3.89821Z" fill="black"/>
</svg>
