<svg width="16" height="24" viewBox="0 0 16 24" fill="none" xmlns="http://www.w3.org/2000/svg">
<path d="M0 2.90625C0 1.30327 1.19583 0 2.66667 0H9.33333V5.8125C9.33333 6.61626 9.92917 7.26562 10.6667 7.26562H16V13.8047H7.33333C5.8625 13.8047 4.66667 15.108 4.66667 16.7109V23.25H2.66667C1.19583 23.25 0 21.9467 0 20.3438V2.90625ZM16 5.8125H10.6667V0L16 5.8125Z" fill="#333333"/>
<g clip-path="url(#clip0_1344_3908)">
<path d="M12.0125 16.2751C12.0125 16.0611 11.839 15.8876 11.625 15.8876C11.411 15.8876 11.2375 16.0611 11.2375 16.2751H12.0125ZM11.351 23.0075C11.5023 23.1588 11.7477 23.1588 11.899 23.0075L14.365 20.5414C14.5164 20.3901 14.5164 20.1448 14.365 19.9934C14.2137 19.8421 13.9684 19.8421 13.817 19.9934L11.625 22.1855L9.43297 19.9934C9.28164 19.8421 9.03629 19.8421 8.88496 19.9934C8.73363 20.1448 8.73363 20.3901 8.88496 20.5414L11.351 23.0075ZM11.2375 16.2751V22.7335H12.0125V16.2751H11.2375Z" fill="black"/>
</g>
<defs>
<clipPath id="clip0_1344_3908">
<rect width="7.75" height="7.75" fill="white" transform="translate(7.75 15.5)"/>
</clipPath>
</defs>
</svg>
