<svg width="30" height="30" viewBox="0 0 30 30" fill="none" xmlns="http://www.w3.org/2000/svg">
<g clip-path="url(#clip0_1307_4815)">
<path d="M18.4062 5.90625C18.4062 6.94225 17.9947 7.93582 17.2621 8.66839C16.5296 9.40095 15.536 9.8125 14.5 9.8125C13.464 9.8125 12.4704 9.40095 11.7379 8.66839C11.0053 7.93582 10.5938 6.94225 10.5938 5.90625C10.5938 4.87025 11.0053 3.87668 11.7379 3.14411C12.4704 2.41155 13.464 2 14.5 2C15.536 2 16.5296 2.41155 17.2621 3.14411C17.9947 3.87668 18.4062 4.87025 18.4062 5.90625ZM26.2188 6.6875C26.2188 7.5163 25.8895 8.31116 25.3035 8.89721C24.7174 9.48326 23.9226 9.8125 23.0938 9.8125C22.2649 9.8125 21.4701 9.48326 20.884 8.89721C20.298 8.31116 19.9688 7.5163 19.9688 6.6875C19.9688 5.8587 20.298 5.06384 20.884 4.47779C21.4701 3.89174 22.2649 3.5625 23.0938 3.5625C23.9226 3.5625 24.7174 3.89174 25.3035 4.47779C25.8895 5.06384 26.2188 5.8587 26.2188 6.6875ZM5.90625 9.8125C6.73505 9.8125 7.52991 9.48326 8.11596 8.89721C8.70201 8.31116 9.03125 7.5163 9.03125 6.6875C9.03125 5.8587 8.70201 5.06384 8.11596 4.47779C7.52991 3.89174 6.73505 3.5625 5.90625 3.5625C5.07745 3.5625 4.28259 3.89174 3.69654 4.47779C3.11049 5.06384 2.78125 5.8587 2.78125 6.6875C2.78125 7.5163 3.11049 8.31116 3.69654 8.89721C4.28259 9.48326 5.07745 9.8125 5.90625 9.8125ZM8.25 13.3281C8.25 12.25 9.125 11.375 10.2031 11.375H18.7969C19.875 11.375 20.75 12.25 20.75 13.3281V20.75C20.75 22.4076 20.0915 23.9973 18.9194 25.1694C17.7473 26.3415 16.1576 27 14.5 27C12.8424 27 11.2527 26.3415 10.0806 25.1694C8.90848 23.9973 8.25 22.4076 8.25 20.75V13.3281ZM6.6875 13.3281C6.6875 12.6047 6.90625 11.9344 7.27969 11.375H3.95312C2.875 11.375 2 12.25 2 13.3281V19.1875C1.99993 19.8564 2.14303 20.5176 2.41969 21.1267C2.69635 21.7357 3.10016 22.2785 3.60399 22.7185C4.10782 23.1586 4.7 23.4857 5.34073 23.6779C5.98146 23.8701 6.65591 23.9229 7.31875 23.8328C6.9007 22.8589 6.6859 21.8099 6.6875 20.75V13.3281ZM22.3125 20.75C22.3125 21.8438 22.0875 22.8875 21.6812 23.8328C22.3441 23.9229 23.0185 23.8701 23.6593 23.6779C24.3 23.4857 24.8922 23.1586 25.396 22.7185C25.8998 22.2785 26.3036 21.7357 26.5803 21.1267C26.857 20.5176 27.0001 19.8564 27 19.1875V13.3281C27 12.25 26.125 11.375 25.0469 11.375H21.7203C22.0953 11.9344 22.3125 12.6047 22.3125 13.3281V20.75Z" fill="black"/>
</g>
<defs>
<clipPath id="clip0_1307_4815">
<rect width="30" height="30" rx="9.42332" fill="white"/>
</clipPath>
</defs>
</svg>
