<svg width="95" height="99" viewBox="0 0 95 99" fill="none" xmlns="http://www.w3.org/2000/svg">
<path d="M95.9625 75.7151C91.618 69.7861 85.415 65.5395 78.3768 63.6758L78.1574 63.6278L73.0869 72.3271C73.0835 73.4855 72.6293 74.5954 71.8234 75.4144C71.0176 76.2335 69.9257 76.6952 68.7861 76.6987C66.4207 76.6987 64.4854 74.7315 62.2275 68.9436V68.8036C62.2275 67.3544 61.6611 65.9645 60.6529 64.9397C59.6447 63.915 58.2773 63.3392 56.8515 63.3392C55.4258 63.3392 54.0584 63.915 53.0502 64.9397C52.042 65.9645 51.4756 67.3544 51.4756 68.8036V68.9479V68.9392C49.0672 74.7315 47.1147 76.6943 44.7536 76.6943C43.614 76.6908 42.522 76.2291 41.7162 75.4101C40.9104 74.591 40.4562 73.4811 40.4528 72.3227L35.5414 63.6059C28.4548 65.438 22.1951 69.6727 17.7965 75.6101L17.7363 75.6932C15.9927 78.5917 15.0219 81.9017 14.9193 85.2975V85.3281C14.9408 85.9838 14.9193 86.7488 14.9193 87.5138V96.2569C14.9193 98.5757 15.8255 100.8 17.4386 102.439C19.0517 104.079 21.2395 105 23.5208 105H90.1823C92.4636 105 94.6514 104.079 96.2645 102.439C97.8776 100.8 98.7838 98.5757 98.7838 96.2569V87.5138C98.7838 86.7532 98.7623 85.9838 98.7838 85.3281C98.6755 81.8936 97.6882 78.5472 95.9195 75.6189L95.9668 75.7063L95.9625 75.7151ZM34.2683 23.2347C34.2683 35.9996 42.0957 54.7535 56.8472 54.7535C71.3408 54.7535 79.4262 35.9996 79.4262 23.2347V22.9506C79.4262 19.9367 78.8421 16.9523 77.7074 14.1678C76.5727 11.3833 74.9096 8.85323 72.813 6.72207C70.7163 4.59091 68.2272 2.90038 65.4878 1.74701C62.7484 0.593634 59.8124 0 56.8472 0C53.8821 0 50.9461 0.593634 48.2067 1.74701C45.4673 2.90038 42.9782 4.59091 40.8815 6.72207C38.7849 8.85323 37.1217 11.3833 35.9871 14.1678C34.8524 16.9523 34.2683 19.9367 34.2683 22.9506V23.2478V23.2347ZM82.5829 30.7538C82.5829 39.0685 87.6836 51.2913 97.2915 51.2913C106.732 51.2913 112 39.0728 112 30.7538V30.5265C112 26.5601 110.45 22.7563 107.691 19.9517C104.932 17.147 101.189 15.5714 97.2872 15.5714C93.3851 15.5714 89.6428 17.147 86.8836 19.9517C84.1244 22.7563 82.5743 26.5601 82.5743 30.5265V30.7669V30.7538H82.5829ZM0.00860149 37.7482C0.00860149 46.0629 5.10929 58.2857 14.7171 58.2857C24.1573 58.2857 29.4257 46.0673 29.4257 37.7482V37.5209C29.4257 33.5546 27.8756 29.7507 25.1164 26.9461C22.3572 24.1415 18.6149 22.5659 14.7128 22.5659C10.8108 22.5659 7.06849 24.1415 4.30929 26.9461C1.5501 29.7507 0 33.5546 0 37.5209L0 37.7614V37.7482H0.00860149Z" fill="#A3DBF0"/>
</svg>
