<svg width="28" height="28" viewBox="0 0 28 28" fill="none" xmlns="http://www.w3.org/2000/svg">
<path d="M8.16665 6.99992V3.49992C8.16665 3.1905 8.28956 2.89375 8.50836 2.67496C8.72715 2.45617 9.02389 2.33325 9.33331 2.33325H18.6666C18.9761 2.33325 19.2728 2.45617 19.4916 2.67496C19.7104 2.89375 19.8333 3.1905 19.8333 3.49992V6.99992H25.6666V9.33325H23.3333V24.4999C23.3333 24.8093 23.2104 25.1061 22.9916 25.3249C22.7728 25.5437 22.4761 25.6666 22.1666 25.6666H5.83331C5.52389 25.6666 5.22715 25.5437 5.00836 25.3249C4.78956 25.1061 4.66665 24.8093 4.66665 24.4999V9.33325H2.33331V6.99992H8.16665ZM15.6496 16.3333L17.7123 14.2706L16.0626 12.6209L14 14.6836L11.9373 12.6209L10.2876 14.2706L12.3503 16.3333L10.2876 18.3959L11.9373 20.0456L14 17.9829L16.0626 20.0456L17.7123 18.3959L15.6496 16.3333ZM10.5 4.66659V6.99992H17.5V4.66659H10.5Z" fill="black"/>
</svg>
