<svg width="31" height="31" viewBox="0 0 31 31" fill="none" xmlns="http://www.w3.org/2000/svg">
<path d="M24.2077 16.3118C24.2581 15.9379 24.2852 15.5613 24.2887 15.1842C24.2852 14.8071 24.2581 14.4306 24.2077 14.0567L26.7133 12.1455C26.8265 12.0613 26.9038 11.9394 26.9305 11.8032C26.9572 11.6669 26.9314 11.5259 26.858 11.407L24.4855 7.39856C24.4168 7.27833 24.3053 7.18674 24.172 7.14104C24.0388 7.09535 23.893 7.09872 23.7621 7.1505L20.8052 8.31187C20.1899 7.85436 19.517 7.47544 18.803 7.18433L18.3574 4.12305C18.3378 3.98759 18.2682 3.86372 18.1618 3.77451C18.0553 3.68531 17.9192 3.63686 17.7788 3.63821H13.0222C12.8818 3.63686 12.7456 3.68531 12.6392 3.77451C12.5327 3.86372 12.4632 3.98759 12.4435 4.12305L11.9979 7.18433C11.283 7.47362 10.6099 7.85268 9.99576 8.31187L7.02722 7.1505C6.89636 7.09872 6.75057 7.09535 6.61733 7.14104C6.48409 7.18674 6.37261 7.27833 6.3039 7.39856L3.93138 11.407C3.85801 11.5259 3.8322 11.6669 3.85889 11.8032C3.88558 11.9394 3.9629 12.0613 4.07604 12.1455L6.57587 14.0567C6.52565 14.4306 6.4986 14.8071 6.49485 15.1842C6.4984 15.5613 6.52546 15.9379 6.57587 16.3118L4.07604 18.223C3.9629 18.3072 3.88558 18.429 3.85889 18.5653C3.8322 18.7016 3.85801 18.8426 3.93138 18.9615L6.3039 22.9699C6.37261 23.0901 6.48409 23.1817 6.61733 23.2274C6.75057 23.2731 6.89636 23.2698 7.02722 23.218L9.98419 22.0566C10.5995 22.5141 11.2723 22.893 11.9864 23.1841L12.4319 26.2454C12.4516 26.3809 12.5211 26.5048 12.6276 26.594C12.7341 26.6832 12.8702 26.7316 13.0106 26.7303H17.7556C17.896 26.7316 18.0322 26.6832 18.1386 26.594C18.2451 26.5048 18.3146 26.3809 18.3343 26.2454L18.7799 23.1841C19.4948 22.8948 20.1679 22.5158 20.782 22.0566L23.739 23.218C23.8699 23.2698 24.0157 23.2731 24.1489 23.2274C24.2821 23.1817 24.3936 23.0901 24.4623 22.9699L26.8348 18.9615C26.9082 18.8426 26.934 18.7016 26.9073 18.5653C26.8806 18.429 26.8033 18.3072 26.6902 18.223L24.2077 16.3118ZM15.3947 19.2321C14.5727 19.2332 13.7688 18.9968 13.0848 18.5527C12.4008 18.1086 11.8674 17.4768 11.552 16.7372C11.2367 15.9976 11.1536 15.1836 11.3132 14.398C11.4729 13.6124 11.8681 12.8906 12.449 12.324C13.0298 11.7573 13.7701 11.3712 14.5762 11.2146C15.3823 11.0579 16.218 11.1377 16.9775 11.444C17.7371 11.7502 18.3863 12.269 18.8431 12.9348C19.2999 13.6006 19.5437 14.3834 19.5437 15.1842C19.5445 15.7155 19.4377 16.2418 19.2295 16.7329C19.0214 17.2239 18.7159 17.6702 18.3305 18.0462C17.9452 18.4221 17.4875 18.7204 16.9838 18.9239C16.48 19.1274 15.94 19.2321 15.3947 19.2321Z" stroke="black" stroke-width="1.53947" stroke-linecap="round" stroke-linejoin="round"/>
</svg>
